<?xml version="1.0" encoding="UTF-8"?>
<svg width="128px" height="128px" viewBox="0 0 128 128" version="1.1" xmlns="http://www.w3.org/2000/svg" xmlns:xlink="http://www.w3.org/1999/xlink">
    <!-- Generator: Sketch 52.2 (67145) - http://www.bohemiancoding.com/sketch -->
    <title>Group</title>
    <desc>Created with Sketch.</desc>
    <g id="Page-1" stroke="none" stroke-width="1" fill="none" fill-rule="evenodd">
        <g id="Group">
            <g id="arrow" fill="#FFFFFF" stroke="#00A9E0" stroke-width="4">
                <circle id="Oval" cx="64" cy="64" r="62"></circle>
            </g>
            <g id="noun_add_1829442_000000" transform="translate(34.000000, 33.000000)" fill="#00A9E0">
                <path d="M35,27 L58,27 C59.1045695,27 60,28.8954305 60,30 L60,32 C60,33.1045695 59.1045695,35 58,35 L35,35 L35,58 C35,59.1045695 33.1045695,60 32,60 L30,60 C28.8954305,60 27,59.1045695 27,58 L27,35 L2,35 C0.8954305,35 1.3527075e-16,33.1045695 0,32 L0,30 C-1.3527075e-16,28.8954305 0.8954305,27 2,27 L27,27 L27,2 C27,0.8954305 28.8954305,2.02906125e-16 30,0 L32,0 C33.1045695,-2.02906125e-16 35,0.8954305 35,2 C35,2.88888889 35,3.55555556 35,4 C35,9.11111111 35,16.7777778 35,27 Z" id="Path"></path>
            </g>
        </g>
    </g>
</svg>