<?xml version="1.0" encoding="UTF-8"?>
<svg width="128px" height="128px" viewBox="0 0 128 128" version="1.1" xmlns="http://www.w3.org/2000/svg" xmlns:xlink="http://www.w3.org/1999/xlink">
    <!-- Generator: Sketch 52.2 (67145) - http://www.bohemiancoding.com/sketch -->
    <title>Group</title>
    <desc>Created with Sketch.</desc>
    <g id="Page-1" stroke="none" stroke-width="1" fill="none" fill-rule="evenodd">
        <g id="edit">
            <g id="Group">
                <circle id="Oval" fill="#00A9E0" cx="64" cy="64" r="64"></circle>
                <path d="M93.9999864,63.9921292 C93.9579864,62.9196295 93.5165365,61.6800297 92.7812367,60.8982299 L68.7812419,35.3970355 C67.1549423,33.9355858 64.036443,33.3322859 62.2187434,35.0220356 C60.4283438,36.6862852 60.4815938,39.9139845 62.2652434,41.5848341 L79.1402397,59.4919802 L38.4999986,59.4919802 C36.0147991,59.4919802 34,61.5067798 34,63.9921292 C34,66.4774787 36.0147991,68.4922782 38.4999986,68.4922782 L79.1402397,68.4922782 L62.2652434,86.3994243 C60.7296937,87.937674 60.4458938,91.2789233 62.2187434,92.9622229 C63.991143,94.6453725 67.2216923,94.1076226 68.7812419,92.587073 L92.7812367,67.0860286 C93.6024865,66.2133287 94.0026864,65.189429 93.9999864,63.9921292 Z" id="Path" fill="#FFFFFF"></path>
            </g>
        </g>
    </g>
</svg>