<?xml version="1.0" encoding="UTF-8"?>
<svg width="240px" height="60px" viewBox="0 0 240 60" version="1.1" xmlns="http://www.w3.org/2000/svg" xmlns:xlink="http://www.w3.org/1999/xlink">
    <!-- Generator: Sketch 50.2 (55047) - http://www.bohemiancoding.com/sketch -->
    <title>Bank Numbers</title>
    <desc>Created with Sketch.</desc>
    <defs></defs>
    <g id="Bank-Numbers" stroke="none" stroke-width="1" fill="none" fill-rule="evenodd">
        <rect id="Rectangle-2-Copy-16" stroke="#E3E3E3" fill-opacity="0.08" fill="#979797" x="0.5" y="0.5" width="239" height="59"></rect>
        <path d="M15.5771484,43.2431641 C16.0654321,43.2431641 16.4674463,43.1772468 16.7832031,43.0454102 C17.0989599,42.9135736 17.3487947,42.7377941 17.5327148,42.5180664 C17.716635,42.2983387 17.8460283,42.0460626 17.9208984,41.7612305 C17.9957686,41.4763983 18.0397135,41.1809911 18.0527344,40.875 C17.8639313,41.0996105 17.6385104,41.2802728 17.3764648,41.4169922 C17.1144193,41.5537116 16.82715,41.6220703 16.5146484,41.6220703 C16.1630842,41.6220703 15.859539,41.5528978 15.6040039,41.4145508 C15.3484688,41.2762037 15.1385099,41.0955415 14.9741211,40.8725586 C14.8097323,40.6495757 14.6876632,40.3964858 14.6079102,40.1132812 C14.5281572,39.8300767 14.4882812,39.5436212 14.4882812,39.2539062 C14.4882812,38.9153629 14.5354813,38.5963557 14.6298828,38.296875 C14.7242843,37.9973943 14.8634431,37.7361665 15.0473633,37.5131836 C15.2312835,37.2902007 15.4607734,37.1144212 15.7358398,36.9858398 C16.0109063,36.8572585 16.3290998,36.7929688 16.6904297,36.7929688 C17.0973328,36.7929688 17.444009,36.8751619 17.7304688,37.0395508 C18.0169285,37.2039396 18.2513012,37.4212226 18.4335938,37.6914062 C18.6158863,37.9615899 18.7493485,38.2683902 18.8339844,38.6118164 C18.9186202,38.9552426 18.9609375,39.3076154 18.9609375,39.6689453 L18.9609375,39.9960938 C18.9609375,40.3053401 18.9454754,40.6186508 18.9145508,40.9360352 C18.8836261,41.2534196 18.825033,41.5610337 18.7387695,41.8588867 C18.6525061,42.1567398 18.5320646,42.4358711 18.3774414,42.6962891 C18.2228182,42.956707 18.0201835,43.1837555 17.7695312,43.3774414 C17.518879,43.5711273 17.2137062,43.7241205 16.8540039,43.8364258 C16.4943016,43.948731 16.0686874,44.0048828 15.5771484,44.0048828 L15.4892578,44.0048828 L15.4892578,43.2431641 L15.5771484,43.2431641 Z M16.6611328,40.875 C16.8141284,40.875 16.9622389,40.8505862 17.1054688,40.8017578 C17.2486986,40.7529294 17.3805333,40.6845708 17.5009766,40.5966797 C17.6214199,40.5087886 17.7296545,40.4062506 17.8256836,40.2890625 C17.9217127,40.1718744 17.9990231,40.0449226 18.0576172,39.9082031 L18.0576172,39.546875 C18.0576172,39.2246078 18.0201827,38.9389661 17.9453125,38.6899414 C17.8704423,38.4409167 17.7703457,38.2317717 17.6450195,38.0625 C17.5196934,37.8932283 17.3748381,37.7646489 17.2104492,37.6767578 C17.0460604,37.5888667 16.8743499,37.5449219 16.6953125,37.5449219 C16.4837229,37.5449219 16.2965503,37.5872392 16.1337891,37.671875 C15.9710278,37.7565108 15.8334967,37.8728834 15.7211914,38.0209961 C15.6088862,38.1691088 15.5234378,38.3440745 15.4648438,38.5458984 C15.4062497,38.7477224 15.3769531,38.9674467 15.3769531,39.2050781 C15.3769531,39.4166677 15.4029945,39.6225576 15.4550781,39.8227539 C15.5071617,40.0229502 15.5860997,40.2011711 15.6918945,40.3574219 C15.7976893,40.5136727 15.9311515,40.6389969 16.0922852,40.7333984 C16.2534188,40.8278 16.4430328,40.875 16.6611328,40.875 Z M22.9160156,44 L22.9160156,36.890625 L24.9228516,36.890625 C25.3916039,36.890625 25.8180319,36.9687492 26.2021484,37.125 C26.5862649,37.2812508 26.9158515,37.5042303 27.190918,37.7939453 C27.4659844,38.0836603 27.6791985,38.4352193 27.8305664,38.8486328 C27.9819344,39.2620463 28.0576172,39.7259089 28.0576172,40.2402344 L28.0576172,40.6601562 C28.0576172,41.1744817 27.9819344,41.6383443 27.8305664,42.0517578 C27.6791985,42.4651713 27.4643569,42.8159165 27.1860352,43.1040039 C26.9077135,43.3920913 26.569989,43.6134432 26.1728516,43.7680664 C25.7757142,43.9226896 25.3313827,44 24.8398438,44 L22.9160156,44 Z M23.8535156,37.6621094 L23.8535156,43.2333984 L24.8398438,43.2333984 C25.2174498,43.2333984 25.5494777,43.1723639 25.8359375,43.050293 C26.1223973,42.928222 26.3616527,42.7548839 26.5537109,42.5302734 C26.7457692,42.3056629 26.8898107,42.0354833 26.9858398,41.7197266 C27.081869,41.4039698 27.1298828,41.0507832 27.1298828,40.6601562 L27.1298828,40.2255859 C27.1298828,39.8186829 27.0810552,39.4565446 26.9833984,39.1391602 C26.8857417,38.8217758 26.742514,38.5532238 26.5537109,38.3334961 C26.3649079,38.1137684 26.1337904,37.9469407 25.8603516,37.8330078 C25.5869127,37.719075 25.2744158,37.6621094 24.9228516,37.6621094 L23.8535156,37.6621094 Z M30.3134766,44 L29.4101562,44 L29.4101562,38.7167969 L30.3134766,38.7167969 L30.3134766,44 Z M29.3369141,37.3154297 C29.3369141,37.1689446 29.3816727,37.0452479 29.4711914,36.9443359 C29.5607101,36.843424 29.6933585,36.7929688 29.8691406,36.7929688 C30.0449228,36.7929688 30.178385,36.843424 30.2695312,36.9443359 C30.3606775,37.0452479 30.40625,37.1689446 30.40625,37.3154297 C30.40625,37.4619148 30.3606775,37.5839839 30.2695312,37.6816406 C30.178385,37.7792974 30.0449228,37.828125 29.8691406,37.828125 C29.6933585,37.828125 29.5607101,37.7792974 29.4711914,37.6816406 C29.3816727,37.5839839 29.3369141,37.4619148 29.3369141,37.3154297 Z M31.5439453,41.3144531 C31.5439453,40.9108053 31.5919592,40.5437842 31.6879883,40.2133789 C31.7840174,39.8829736 31.9223624,39.5997733 32.1030273,39.3637695 C32.2836923,39.1277657 32.5026029,38.9446621 32.7597656,38.8144531 C33.0169284,38.6842441 33.306639,38.6191406 33.6289062,38.6191406 C33.9641944,38.6191406 34.2555326,38.6777338 34.5029297,38.7949219 C34.7503268,38.91211 34.9619132,39.0813791 35.1376953,39.3027344 L35.1816406,38.7167969 L36.0068359,38.7167969 L36.0068359,43.8876953 C36.0068359,44.2360043 35.9523117,44.5460598 35.8432617,44.8178711 C35.7342117,45.0896823 35.5804046,45.3191722 35.3818359,45.5063477 C35.1832672,45.6935231 34.947267,45.835937 34.6738281,45.9335938 C34.4003893,46.0312505 34.0976579,46.0800781 33.765625,46.0800781 C33.6289056,46.0800781 33.4718433,46.064616 33.2944336,46.0336914 C33.1170239,46.0027668 32.9379892,45.9523115 32.7573242,45.8823242 C32.5766593,45.8123369 32.4033211,45.7187506 32.2373047,45.6015625 C32.0712882,45.4843744 31.9296881,45.3395191 31.8125,45.1669922 L32.28125,44.625 C32.3919276,44.7617194 32.5058588,44.8756506 32.6230469,44.9667969 C32.740235,45.0579432 32.8582351,45.1311846 32.9770508,45.1865234 C33.0958665,45.2418623 33.216308,45.2817382 33.3383789,45.3061523 C33.4604498,45.3305665 33.5817051,45.3427734 33.7021484,45.3427734 C33.913738,45.3427734 34.1057934,45.3126631 34.2783203,45.2524414 C34.4508472,45.1922198 34.5981439,45.1018886 34.7202148,44.9814453 C34.8422858,44.861002 34.9358721,44.7137053 35.0009766,44.5395508 C35.0660811,44.3653963 35.0986328,44.1627616 35.0986328,43.9316406 L35.0986328,43.4726562 C34.9228507,43.6744802 34.7137056,43.829101 34.4711914,43.9365234 C34.2286772,44.0439458 33.9446631,44.0976562 33.6191406,44.0976562 C33.3033838,44.0976562 33.0177422,44.0309251 32.762207,43.8974609 C32.5066719,43.7639967 32.2885751,43.5776379 32.1079102,43.3383789 C31.9272452,43.0991199 31.7880864,42.8159196 31.6904297,42.4887695 C31.5927729,42.1616195 31.5439453,41.8043639 31.5439453,41.4169922 L31.5439453,41.3144531 Z M32.4521484,41.4169922 C32.4521484,41.6806654 32.4790036,41.9288725 32.5327148,42.1616211 C32.586426,42.3943697 32.669433,42.5970043 32.7817383,42.7695312 C32.8940435,42.9420582 33.0380851,43.0787755 33.2138672,43.1796875 C33.3896493,43.2805995 33.5996082,43.3310547 33.84375,43.3310547 C34.003256,43.3310547 34.1472975,43.3115236 34.2758789,43.2724609 C34.4044603,43.2333982 34.520019,43.1796878 34.6225586,43.1113281 C34.7250982,43.0429684 34.8154293,42.961589 34.8935547,42.8671875 C34.9716801,42.772786 35.0400388,42.6686204 35.0986328,42.5546875 L35.0986328,40.1425781 C35.0400388,40.0351557 34.9716801,39.9350591 34.8935547,39.8422852 C34.8154293,39.7495113 34.7250982,39.6689457 34.6225586,39.6005859 C34.520019,39.5322262 34.4052741,39.4793296 34.2783203,39.4418945 C34.1513666,39.4044594 34.0097664,39.3857422 33.8535156,39.3857422 C33.6061186,39.3857422 33.3945321,39.4370112 33.21875,39.5395508 C33.0429679,39.6420904 32.8981125,39.7812491 32.7841797,39.9570312 C32.6702468,40.1328134 32.586426,40.3370757 32.5327148,40.5698242 C32.4790036,40.8025728 32.4521484,41.0507799 32.4521484,41.3144531 L32.4521484,41.4169922 Z M38.3505859,44 L37.4472656,44 L37.4472656,38.7167969 L38.3505859,38.7167969 L38.3505859,44 Z M37.3740234,37.3154297 C37.3740234,37.1689446 37.4187821,37.0452479 37.5083008,36.9443359 C37.5978195,36.843424 37.7304679,36.7929688 37.90625,36.7929688 C38.0820321,36.7929688 38.2154943,36.843424 38.3066406,36.9443359 C38.3977869,37.0452479 38.4433594,37.1689446 38.4433594,37.3154297 C38.4433594,37.4619148 38.3977869,37.5839839 38.3066406,37.6816406 C38.2154943,37.7792974 38.0820321,37.828125 37.90625,37.828125 C37.7304679,37.828125 37.5978195,37.7792974 37.5083008,37.6816406 C37.4187821,37.5839839 37.3740234,37.4619148 37.3740234,37.3154297 Z M41.0214844,37.4375 L41.0214844,38.7167969 L42.0078125,38.7167969 L42.0078125,39.4150391 L41.0214844,39.4150391 L41.0214844,42.6914062 C41.0214844,42.8281257 41.0377603,42.9379879 41.0703125,43.0209961 C41.1028647,43.1040043 41.1459958,43.168294 41.199707,43.2138672 C41.2534182,43.2594403 41.3152666,43.2895507 41.3852539,43.3041992 C41.4552412,43.3188477 41.5276689,43.3261719 41.6025391,43.3261719 C41.6774092,43.3261719 41.7563472,43.3188477 41.8393555,43.3041992 C41.9223637,43.2895507 41.9866534,43.2773438 42.0322266,43.2675781 L42.0322266,44 C41.9606116,44.0195313 41.8678391,44.04069 41.7539062,44.0634766 C41.6399734,44.0862631 41.5016284,44.0976562 41.3388672,44.0976562 C41.1728507,44.0976562 41.0157885,44.0740562 40.8676758,44.0268555 C40.7195631,43.9796547 40.5901698,43.9007167 40.4794922,43.7900391 C40.3688146,43.6793614 40.2809248,43.5336923 40.2158203,43.3530273 C40.1507158,43.1723624 40.1181641,42.9501966 40.1181641,42.6865234 L40.1181641,39.4150391 L39.15625,39.4150391 L39.15625,38.7167969 L40.1181641,38.7167969 L40.1181641,37.4375 L41.0214844,37.4375 Z M48.2871094,41.1240234 L46.6171875,41.1240234 L46.6171875,44 L45.6748047,44 L45.6748047,36.890625 L48.0283203,36.890625 C48.8291056,36.890625 49.4451476,37.0729148 49.8764648,37.4375 C50.3077821,37.8020852 50.5234375,38.3326788 50.5234375,39.0292969 C50.5234375,39.4720074 50.4038098,39.8577458 50.1645508,40.1865234 C49.9252918,40.5153011 49.59245,40.7610669 49.1660156,40.9238281 L50.8359375,43.9414062 L50.8359375,44 L49.8300781,44 L48.2871094,41.1240234 Z M46.6171875,40.3574219 L48.0576172,40.3574219 C48.3115247,40.3574219 48.5336905,40.3224287 48.7241211,40.2524414 C48.9145517,40.1824541 49.0732416,40.088054 49.2001953,39.9692383 C49.3271491,39.8504226 49.422363,39.71045 49.4858398,39.5493164 C49.5493167,39.3881828 49.5810547,39.2148447 49.5810547,39.0292969 C49.5810547,38.8242177 49.5509443,38.6378589 49.4907227,38.4702148 C49.430501,38.3025708 49.3369147,38.1585292 49.2099609,38.0380859 C49.0830072,37.9176426 48.921876,37.8248701 48.7265625,37.7597656 C48.531249,37.6946611 48.298504,37.6621094 48.0283203,37.6621094 L46.6171875,37.6621094 L46.6171875,40.3574219 Z M51.4560547,41.3095703 C51.4560547,40.9254538 51.5122065,40.5698259 51.6245117,40.2426758 C51.736817,39.9155257 51.8963206,39.6315116 52.1030273,39.390625 C52.3097341,39.1497384 52.5611964,38.9609382 52.8574219,38.8242188 C53.1536473,38.6874993 53.4856752,38.6191406 53.8535156,38.6191406 C54.2278665,38.6191406 54.5639634,38.6874993 54.8618164,38.8242188 C55.1596695,38.9609382 55.4127594,39.1497384 55.6210938,39.390625 C55.8294281,39.6315116 55.9889317,39.9155257 56.0996094,40.2426758 C56.210287,40.5698259 56.265625,40.9254538 56.265625,41.3095703 L56.265625,41.4169922 C56.265625,41.8011087 56.210287,42.1567366 56.0996094,42.4838867 C55.9889317,42.8110368 55.8294281,43.0942371 55.6210938,43.3334961 C55.4127594,43.5727551 55.1604833,43.7599277 54.8642578,43.8950195 C54.5680324,44.0301114 54.2343769,44.0976562 53.8632812,44.0976562 C53.4921856,44.0976562 53.1585301,44.0301114 52.8623047,43.8950195 C52.5660792,43.7599277 52.3138031,43.5727551 52.1054688,43.3334961 C51.8971344,43.0942371 51.736817,42.8110368 51.6245117,42.4838867 C51.5122065,42.1567366 51.4560547,41.8011087 51.4560547,41.4169922 L51.4560547,41.3095703 Z M52.3642578,41.4169922 C52.3642578,41.6806654 52.395182,41.9296863 52.4570312,42.1640625 C52.5188805,42.3984387 52.6124668,42.6043285 52.737793,42.7817383 C52.8631191,42.959148 53.0193676,43.0999344 53.206543,43.2041016 C53.3937184,43.3082687 53.612629,43.3603516 53.8632812,43.3603516 C54.1106783,43.3603516 54.3287751,43.3082687 54.5175781,43.2041016 C54.7063812,43.0999344 54.8626296,42.959148 54.9863281,42.7817383 C55.1100267,42.6043285 55.203613,42.3984387 55.2670898,42.1640625 C55.3305667,41.9296863 55.3623047,41.6806654 55.3623047,41.4169922 L55.3623047,41.3095703 C55.3623047,41.0491523 55.3305667,40.8009452 55.2670898,40.5649414 C55.203613,40.3289376 55.1092129,40.122234 54.9838867,39.9448242 C54.8585606,39.7674145 54.7014983,39.6258143 54.5126953,39.5200195 C54.3238923,39.4142247 54.1041679,39.3613281 53.8535156,39.3613281 C53.6061186,39.3613281 53.3896494,39.4142247 53.2041016,39.5200195 C53.0185538,39.6258143 52.8631191,39.7674145 52.737793,39.9448242 C52.6124668,40.122234 52.5188805,40.3289376 52.4570312,40.5649414 C52.395182,40.8009452 52.3642578,41.0491523 52.3642578,41.3095703 L52.3642578,41.4169922 Z M60.6601562,43.4775391 C60.4941398,43.6728525 60.284181,43.825032 60.0302734,43.934082 C59.7763659,44.0431321 59.4703794,44.0976562 59.1123047,44.0976562 C58.8518867,44.0976562 58.6158865,44.0610355 58.4042969,43.987793 C58.1927073,43.9145504 58.0104174,43.7989917 57.8574219,43.6411133 C57.7044263,43.4832349 57.5864262,43.2797864 57.503418,43.0307617 C57.4204097,42.781737 57.3789062,42.4814471 57.3789062,42.1298828 L57.3789062,38.7167969 L58.2822266,38.7167969 L58.2822266,42.1396484 C58.2822266,42.3772798 58.3098956,42.5734042 58.3652344,42.7280273 C58.4205732,42.8826505 58.4938146,43.0047196 58.5849609,43.0942383 C58.6761072,43.183757 58.7802729,43.2456053 58.8974609,43.2797852 C59.014649,43.313965 59.1350905,43.3310547 59.2587891,43.3310547 C59.6266294,43.3310547 59.9220366,43.2610684 60.1450195,43.1210938 C60.3680024,42.9811191 60.531575,42.7939465 60.6357422,42.5595703 L60.6357422,38.7167969 L61.5390625,38.7167969 L61.5390625,44 L60.6796875,44 L60.6601562,43.4775391 Z M64.1367188,37.4375 L64.1367188,38.7167969 L65.1230469,38.7167969 L65.1230469,39.4150391 L64.1367188,39.4150391 L64.1367188,42.6914062 C64.1367188,42.8281257 64.1529946,42.9379879 64.1855469,43.0209961 C64.2180991,43.1040043 64.2612302,43.168294 64.3149414,43.2138672 C64.3686526,43.2594403 64.430501,43.2895507 64.5004883,43.3041992 C64.5704756,43.3188477 64.6429033,43.3261719 64.7177734,43.3261719 C64.7926436,43.3261719 64.8715816,43.3188477 64.9545898,43.3041992 C65.0375981,43.2895507 65.1018878,43.2773438 65.1474609,43.2675781 L65.1474609,44 C65.075846,44.0195313 64.9830735,44.04069 64.8691406,44.0634766 C64.7552078,44.0862631 64.6168628,44.0976562 64.4541016,44.0976562 C64.2880851,44.0976562 64.1310229,44.0740562 63.9829102,44.0268555 C63.8347974,43.9796547 63.7054042,43.9007167 63.5947266,43.7900391 C63.4840489,43.6793614 63.3961592,43.5336923 63.3310547,43.3530273 C63.2659502,43.1723624 63.2333984,42.9501966 63.2333984,42.6865234 L63.2333984,39.4150391 L62.2714844,39.4150391 L62.2714844,38.7167969 L63.2333984,38.7167969 L63.2333984,37.4375 L64.1367188,37.4375 Z M67.1591797,44 L66.2558594,44 L66.2558594,38.7167969 L67.1591797,38.7167969 L67.1591797,44 Z M66.1826172,37.3154297 C66.1826172,37.1689446 66.2273759,37.0452479 66.3168945,36.9443359 C66.4064132,36.843424 66.5390616,36.7929688 66.7148438,36.7929688 C66.8906259,36.7929688 67.0240881,36.843424 67.1152344,36.9443359 C67.2063807,37.0452479 67.2519531,37.1689446 67.2519531,37.3154297 C67.2519531,37.4619148 67.2063807,37.5839839 67.1152344,37.6816406 C67.0240881,37.7792974 66.8906259,37.828125 66.7148438,37.828125 C66.5390616,37.828125 66.4064132,37.7792974 66.3168945,37.6816406 C66.2273759,37.5839839 66.1826172,37.4619148 66.1826172,37.3154297 Z M69.4589844,38.7167969 L69.4882812,39.3808594 C69.6770843,39.143228 69.9049466,38.9568692 70.171875,38.8217773 C70.4388034,38.6866855 70.7382796,38.6191406 71.0703125,38.6191406 C71.3274752,38.6191406 71.5602203,38.6541338 71.7685547,38.7241211 C71.9768891,38.7941084 72.1542961,38.906412 72.3007812,39.0610352 C72.4472664,39.2156583 72.5603837,39.414224 72.6401367,39.6567383 C72.7198897,39.8992525 72.7597656,40.1930321 72.7597656,40.5380859 L72.7597656,44 L71.8564453,44 L71.8564453,40.5283203 C71.8564453,40.3232412 71.8336591,40.1482755 71.7880859,40.003418 C71.7425128,39.8585605 71.6749679,39.7405604 71.5854492,39.6494141 C71.4959305,39.5582678 71.3852546,39.4915367 71.253418,39.4492188 C71.1215814,39.4069008 70.9694019,39.3857422 70.796875,39.3857422 C70.5039048,39.3857422 70.2467459,39.4638664 70.0253906,39.6201172 C69.8040354,39.776368 69.631511,39.981444 69.5078125,40.2353516 L69.5078125,44 L68.6044922,44 L68.6044922,38.7167969 L69.4589844,38.7167969 Z M73.9072266,41.3144531 C73.9072266,40.9108053 73.9552404,40.5437842 74.0512695,40.2133789 C74.1472987,39.8829736 74.2856436,39.5997733 74.4663086,39.3637695 C74.6469736,39.1277657 74.8658841,38.9446621 75.1230469,38.8144531 C75.3802096,38.6842441 75.6699203,38.6191406 75.9921875,38.6191406 C76.3274756,38.6191406 76.6188139,38.6777338 76.8662109,38.7949219 C77.113608,38.91211 77.3251944,39.0813791 77.5009766,39.3027344 L77.5449219,38.7167969 L78.3701172,38.7167969 L78.3701172,43.8876953 C78.3701172,44.2360043 78.315593,44.5460598 78.206543,44.8178711 C78.0974929,45.0896823 77.9436859,45.3191722 77.7451172,45.5063477 C77.5465485,45.6935231 77.3105482,45.835937 77.0371094,45.9335938 C76.7636705,46.0312505 76.4609392,46.0800781 76.1289062,46.0800781 C75.9921868,46.0800781 75.8351246,46.064616 75.6577148,46.0336914 C75.4803051,46.0027668 75.3012704,45.9523115 75.1206055,45.8823242 C74.9399405,45.8123369 74.7666024,45.7187506 74.6005859,45.6015625 C74.4345695,45.4843744 74.2929693,45.3395191 74.1757812,45.1669922 L74.6445312,44.625 C74.7552089,44.7617194 74.86914,44.8756506 74.9863281,44.9667969 C75.1035162,45.0579432 75.2215163,45.1311846 75.340332,45.1865234 C75.4591477,45.2418623 75.5795892,45.2817382 75.7016602,45.3061523 C75.8237311,45.3305665 75.9449864,45.3427734 76.0654297,45.3427734 C76.2770193,45.3427734 76.4690747,45.3126631 76.6416016,45.2524414 C76.8141285,45.1922198 76.9614252,45.1018886 77.0834961,44.9814453 C77.205567,44.861002 77.2991533,44.7137053 77.3642578,44.5395508 C77.4293623,44.3653963 77.4619141,44.1627616 77.4619141,43.9316406 L77.4619141,43.4726562 C77.2861319,43.6744802 77.0769869,43.829101 76.8344727,43.9365234 C76.5919584,44.0439458 76.3079443,44.0976562 75.9824219,44.0976562 C75.6666651,44.0976562 75.3810234,44.0309251 75.1254883,43.8974609 C74.8699531,43.7639967 74.6518564,43.5776379 74.4711914,43.3383789 C74.2905264,43.0991199 74.1513677,42.8159196 74.0537109,42.4887695 C73.9560542,42.1616195 73.9072266,41.8043639 73.9072266,41.4169922 L73.9072266,41.3144531 Z M74.8154297,41.4169922 C74.8154297,41.6806654 74.8422849,41.9288725 74.8959961,42.1616211 C74.9497073,42.3943697 75.0327143,42.5970043 75.1450195,42.7695312 C75.2573248,42.9420582 75.4013663,43.0787755 75.5771484,43.1796875 C75.7529306,43.2805995 75.9628894,43.3310547 76.2070312,43.3310547 C76.3665373,43.3310547 76.5105788,43.3115236 76.6391602,43.2724609 C76.7677415,43.2333982 76.8833003,43.1796878 76.9858398,43.1113281 C77.0883794,43.0429684 77.1787105,42.961589 77.2568359,42.8671875 C77.3349613,42.772786 77.40332,42.6686204 77.4619141,42.5546875 L77.4619141,40.1425781 C77.40332,40.0351557 77.3349613,39.9350591 77.2568359,39.8422852 C77.1787105,39.7495113 77.0883794,39.6689457 76.9858398,39.6005859 C76.8833003,39.5322262 76.7685553,39.4793296 76.6416016,39.4418945 C76.5146478,39.4044594 76.3730477,39.3857422 76.2167969,39.3857422 C75.9693998,39.3857422 75.7578134,39.4370112 75.5820312,39.5395508 C75.4062491,39.6420904 75.2613938,39.7812491 75.1474609,39.9570312 C75.0335281,40.1328134 74.9497073,40.3370757 74.8959961,40.5698242 C74.8422849,40.8025728 74.8154297,41.0507799 74.8154297,41.3144531 L74.8154297,41.4169922 Z M87.8134766,44 L86.8710938,44 L83.2919922,38.5214844 L83.2919922,44 L82.3496094,44 L82.3496094,36.890625 L83.2919922,36.890625 L86.8808594,42.3935547 L86.8808594,36.890625 L87.8134766,36.890625 L87.8134766,44 Z M92.5986328,43.4775391 C92.4326164,43.6728525 92.2226575,43.825032 91.96875,43.934082 C91.7148425,44.0431321 91.408856,44.0976562 91.0507812,44.0976562 C90.7903633,44.0976562 90.554363,44.0610355 90.3427734,43.987793 C90.1311838,43.9145504 89.948894,43.7989917 89.7958984,43.6411133 C89.6429029,43.4832349 89.5249028,43.2797864 89.4418945,43.0307617 C89.3588863,42.781737 89.3173828,42.4814471 89.3173828,42.1298828 L89.3173828,38.7167969 L90.2207031,38.7167969 L90.2207031,42.1396484 C90.2207031,42.3772798 90.2483721,42.5734042 90.3037109,42.7280273 C90.3590498,42.8826505 90.4322912,43.0047196 90.5234375,43.0942383 C90.6145838,43.183757 90.7187494,43.2456053 90.8359375,43.2797852 C90.9531256,43.313965 91.0735671,43.3310547 91.1972656,43.3310547 C91.565106,43.3310547 91.8605132,43.2610684 92.0834961,43.1210938 C92.306479,42.9811191 92.4700516,42.7939465 92.5742188,42.5595703 L92.5742188,38.7167969 L93.4775391,38.7167969 L93.4775391,44 L92.6181641,44 L92.5986328,43.4775391 Z M95.6992188,38.7167969 L95.7236328,39.3027344 C95.9059254,39.0878896 96.1264635,38.920248 96.3852539,38.7998047 C96.6440443,38.6793614 96.9459618,38.6191406 97.2910156,38.6191406 C97.6328142,38.6191406 97.9347318,38.6866855 98.1967773,38.8217773 C98.4588229,38.9568692 98.65983,39.1725246 98.7998047,39.46875 C98.9755868,39.2148425 99.2042629,39.0097664 99.4858398,38.8535156 C99.7674168,38.6972648 100.100258,38.6191406 100.484375,38.6191406 C100.76758,38.6191406 101.018228,38.6557614 101.236328,38.7290039 C101.454428,38.8022465 101.639159,38.9169914 101.790527,39.0732422 C101.941895,39.229493 102.05664,39.4280587 102.134766,39.6689453 C102.212891,39.9098319 102.251953,40.1962874 102.251953,40.5283203 L102.251953,44 L101.348633,44 L101.348633,40.5234375 C101.348633,40.3020822 101.321778,40.1181648 101.268066,39.9716797 C101.214355,39.8251946 101.138672,39.7080083 101.041016,39.6201172 C100.943359,39.5322261 100.824545,39.4711916 100.68457,39.4370117 C100.544596,39.4028319 100.389975,39.3857422 100.220703,39.3857422 C100.035155,39.3857422 99.8707689,39.4150388 99.7275391,39.4736328 C99.5843092,39.5322269 99.4614263,39.6111649 99.3588867,39.7104492 C99.2563471,39.8097336 99.1749677,39.9269199 99.1147461,40.0620117 C99.0545244,40.1971035 99.0162761,40.3411451 99,40.4941406 L99,44 L98.0917969,44 L98.0917969,40.5283203 C98.0917969,40.3232412 98.0649417,40.1482755 98.0112305,40.003418 C97.9575193,39.8585605 97.8818364,39.7405604 97.7841797,39.6494141 C97.6865229,39.5582678 97.5685228,39.4915367 97.4301758,39.4492188 C97.2918287,39.4069008 97.1363941,39.3857422 96.9638672,39.3857422 C96.6416,39.3857422 96.3828135,39.4557285 96.1875,39.5957031 C95.9921865,39.7356778 95.8457036,39.9179676 95.7480469,40.1425781 L95.7480469,44 L94.8447266,44 L94.8447266,38.7167969 L95.6992188,38.7167969 Z M108.086914,41.4169922 C108.086914,41.8043639 108.041342,42.1616195 107.950195,42.4887695 C107.859049,42.8159196 107.725587,43.0991199 107.549805,43.3383789 C107.374023,43.5776379 107.159181,43.7639967 106.905273,43.8974609 C106.651366,44.0309251 106.361655,44.0976562 106.036133,44.0976562 C105.687824,44.0976562 105.38672,44.0366217 105.132812,43.9145508 C104.878905,43.7924799 104.664063,43.6175142 104.488281,43.3896484 L104.444336,44 L103.614258,44 L103.614258,36.5 L104.517578,36.5 L104.517578,39.2978516 C104.69336,39.0797515 104.904947,38.91211 105.152344,38.7949219 C105.399741,38.6777338 105.691079,38.6191406 106.026367,38.6191406 C106.3584,38.6191406 106.65218,38.6842441 106.907715,38.8144531 C107.16325,38.9446621 107.378092,39.1277657 107.552246,39.3637695 C107.726401,39.5997733 107.859049,39.8829736 107.950195,40.2133789 C108.041342,40.5437842 108.086914,40.9108053 108.086914,41.3144531 L108.086914,41.4169922 Z M107.183594,41.3144531 C107.183594,41.0507799 107.15918,40.8025728 107.110352,40.5698242 C107.061523,40.3370757 106.982585,40.1328134 106.873535,39.9570312 C106.764485,39.7812491 106.622071,39.6420904 106.446289,39.5395508 C106.270507,39.4370112 106.055665,39.3857422 105.801758,39.3857422 C105.635741,39.3857422 105.486003,39.4069008 105.352539,39.4492188 C105.219075,39.4915367 105.099447,39.5501298 104.993652,39.625 C104.887858,39.6998702 104.795899,39.7877599 104.717773,39.8886719 C104.639648,39.9895838 104.572917,40.0986322 104.517578,40.2158203 L104.517578,42.5009766 C104.576172,42.6181646 104.645345,42.727213 104.725098,42.828125 C104.804851,42.929037 104.897623,43.0169267 105.003418,43.0917969 C105.109213,43.166667 105.22884,43.2252602 105.362305,43.2675781 C105.495769,43.309896 105.645507,43.3310547 105.811523,43.3310547 C106.055665,43.3310547 106.263997,43.2805995 106.436523,43.1796875 C106.60905,43.0787755 106.75065,42.9420582 106.861328,42.7695312 C106.972006,42.5970043 107.053385,42.3943697 107.105469,42.1616211 C107.157552,41.9288725 107.183594,41.6806654 107.183594,41.4169922 L107.183594,41.3144531 Z M111.416992,44.0976562 C111.049152,44.0976562 110.71631,44.0341803 110.418457,43.9072266 C110.120604,43.7802728 109.865886,43.6036795 109.654297,43.3774414 C109.442707,43.1512033 109.279948,42.8818375 109.166016,42.5693359 C109.052083,42.2568344 108.995117,41.9150409 108.995117,41.5439453 L108.995117,41.3388672 C108.995117,40.9091775 109.059407,40.5250668 109.187988,40.1865234 C109.31657,39.8479801 109.48828,39.5631522 109.703125,39.3320312 C109.91797,39.1009103 110.163736,38.924317 110.44043,38.8022461 C110.717124,38.6801752 111.005207,38.6191406 111.304688,38.6191406 C111.682294,38.6191406 112.007811,38.6850579 112.28125,38.8168945 C112.554689,38.9487311 112.78011,39.1302072 112.95752,39.3613281 C113.134929,39.5924491 113.26595,39.8658838 113.350586,40.1816406 C113.435222,40.4973974 113.477539,40.8408185 113.477539,41.2119141 L113.477539,41.6171875 L109.898438,41.6171875 C109.904948,41.8613293 109.944824,42.0891917 110.018066,42.3007812 C110.091309,42.5123708 110.195475,42.6962883 110.330566,42.8525391 C110.465658,43.0087898 110.628417,43.1324865 110.818848,43.2236328 C111.009278,43.3147791 111.224934,43.3603516 111.46582,43.3603516 C111.784832,43.3603516 112.055012,43.295248 112.276367,43.1650391 C112.497722,43.0348301 112.691405,42.8623058 112.857422,42.6474609 L113.40918,43.0771484 C113.324544,43.2073574 113.222006,43.3334955 113.101562,43.4555664 C112.981119,43.5776373 112.840333,43.6866857 112.679199,43.7827148 C112.518066,43.878744 112.333334,43.9552406 112.125,44.012207 C111.916666,44.0691735 111.680665,44.0976562 111.416992,44.0976562 Z M111.304688,39.3613281 C111.122395,39.3613281 110.954753,39.3946937 110.801758,39.4614258 C110.648762,39.5281579 110.512045,39.6249994 110.391602,39.7519531 C110.271158,39.8789069 110.171062,40.0367829 110.091309,40.2255859 C110.011556,40.414389 109.957031,40.6308582 109.927734,40.875 L112.574219,40.875 L112.574219,40.8066406 C112.564453,40.6308585 112.53597,40.4567066 112.48877,40.2841797 C112.441569,40.1116528 112.368327,39.9570319 112.269043,39.8203125 C112.169759,39.6835931 112.041993,39.5729171 111.885742,39.4882812 C111.729491,39.4036454 111.535808,39.3613281 111.304688,39.3613281 Z M117.076172,39.5273438 C116.998046,39.5143229 116.925619,39.5053711 116.858887,39.5004883 C116.792155,39.4956054 116.716472,39.4931641 116.631836,39.4931641 C116.319334,39.4931641 116.064617,39.5615228 115.867676,39.6982422 C115.670735,39.8349616 115.523438,40.0188791 115.425781,40.25 L115.425781,44 L114.522461,44 L114.522461,38.7167969 L115.401367,38.7167969 L115.416016,39.3271484 C115.552735,39.1090484 115.723632,38.9365241 115.928711,38.8095703 C116.13379,38.6826166 116.382811,38.6191406 116.675781,38.6191406 C116.740886,38.6191406 116.815755,38.6264648 116.900391,38.6411133 C116.985026,38.6557618 117.04362,38.6712239 117.076172,38.6875 L117.076172,39.5273438 Z" id="9-Digit-Routing-Numb" fill="#666666"></path>
        <path d="M25.356,24.603 L24.564,24.603 C24.322,24.603 24.146,24.603 23.992,24.394 C23.871,24.229 23.871,24.108 23.871,23.899 L23.871,23.283 C23.871,23.074 23.871,22.953 23.992,22.788 C24.146,22.579 24.322,22.579 24.564,22.579 L25.356,22.579 C25.598,22.579 25.774,22.579 25.928,22.788 C26.049,22.953 26.049,23.074 26.049,23.283 L26.049,23.899 C26.049,24.108 26.049,24.229 25.928,24.394 C25.774,24.603 25.598,24.603 25.356,24.603 Z M25.356,20.863 L24.564,20.863 C24.322,20.863 24.146,20.863 23.992,20.654 C23.871,20.489 23.871,20.368 23.871,20.159 L23.871,19.543 C23.871,19.334 23.871,19.213 23.992,19.048 C24.146,18.839 24.322,18.839 24.564,18.839 L25.356,18.839 C25.598,18.839 25.774,18.839 25.928,19.048 C26.049,19.213 26.049,19.334 26.049,19.543 L26.049,20.159 C26.049,20.368 26.049,20.489 25.928,20.654 C25.774,20.863 25.598,20.863 25.356,20.863 Z M33.43,24.9 L34.497,24.9 L34.497,22.678 C34.497,22.359 34.64,22.128 35.047,22.128 C35.454,22.128 35.597,22.359 35.597,22.678 L35.597,25.45 C35.597,25.846 35.333,26 35.047,26 L30.713,26 C30.427,26 30.163,25.846 30.163,25.45 C30.163,25.054 30.427,24.9 30.713,24.9 L32.33,24.9 L32.33,18.542 L30.713,18.542 C30.427,18.542 30.163,18.388 30.163,17.992 C30.163,17.596 30.427,17.442 30.713,17.442 L33.43,17.442 L33.43,24.9 Z M39.183,22.271 L39.183,24.9 L42.967,24.9 C43.253,24.9 43.517,25.054 43.517,25.45 C43.517,25.846 43.253,26 42.967,26 L38.083,26 L38.083,22.414 C38.083,21.589 38.501,21.171 39.326,21.171 L42.417,21.171 L42.417,18.542 L38.633,18.542 C38.347,18.542 38.083,18.388 38.083,17.992 C38.083,17.596 38.347,17.442 38.633,17.442 L42.285,17.442 C42.648,17.442 42.901,17.497 43.176,17.75 C43.484,18.036 43.517,18.333 43.517,18.729 L43.517,20.984 C43.517,21.38 43.484,21.677 43.176,21.963 C42.901,22.216 42.648,22.271 42.285,22.271 L39.183,22.271 Z M50.337,18.542 L46.553,18.542 C46.267,18.542 46.003,18.388 46.003,17.992 C46.003,17.596 46.267,17.442 46.553,17.442 L50.337,17.442 C50.964,17.442 51.437,17.915 51.437,18.542 L51.437,20.654 C51.437,21.094 51.349,21.413 51.008,21.721 C51.349,22.029 51.437,22.348 51.437,22.788 L51.437,24.9 C51.437,25.527 50.964,26 50.337,26 L46.553,26 C46.267,26 46.003,25.846 46.003,25.45 C46.003,25.054 46.267,24.9 46.553,24.9 L50.337,24.9 L50.337,23.074 C50.337,22.458 50.095,22.271 49.787,22.271 L47.631,22.271 C47.345,22.271 47.081,22.117 47.081,21.721 C47.081,21.325 47.345,21.171 47.631,21.171 L49.787,21.171 C50.095,21.171 50.337,20.984 50.337,20.368 L50.337,18.542 Z M55.573,22.106 L57.707,22.106 L57.707,18.927 C57.707,18.652 57.839,18.377 58.257,18.377 C58.675,18.377 58.807,18.652 58.807,18.927 L58.807,22.106 C59.093,22.106 59.357,22.26 59.357,22.656 C59.357,23.052 59.093,23.206 58.807,23.206 L58.807,25.45 C58.807,25.802 58.653,26 58.257,26 C57.861,26 57.707,25.802 57.707,25.45 L57.707,23.206 L54.473,23.206 L54.473,17.992 C54.473,17.717 54.605,17.442 55.023,17.442 C55.441,17.442 55.573,17.717 55.573,17.992 L55.573,22.106 Z M64.032,18.542 L64.032,21.171 L66.056,21.171 C66.408,21.171 66.672,21.226 66.936,21.479 C67.244,21.765 67.277,22.029 67.277,22.414 L67.277,24.768 C67.277,25.109 67.244,25.351 67.013,25.626 C66.738,25.956 66.452,26 66.056,26 L63.614,26 C63.328,26 63.163,25.923 62.888,25.802 L62.47,25.615 C62.173,25.483 61.843,25.384 61.843,24.999 C61.843,24.713 62.085,24.449 62.371,24.449 C62.503,24.449 62.602,24.482 62.723,24.537 L63.053,24.68 C63.207,24.746 63.46,24.9 63.636,24.9 L66.177,24.9 L66.177,22.271 L62.932,22.271 L62.932,17.442 L66.727,17.442 C67.013,17.442 67.277,17.596 67.277,17.992 C67.277,18.388 67.013,18.542 66.727,18.542 L64.032,18.542 Z M70.863,18.542 L70.863,22.106 L74.537,22.106 C75.087,22.106 75.197,22.337 75.197,22.843 L75.197,25.307 C75.197,25.824 74.977,26 74.482,26 L70.478,26 C69.961,26 69.763,25.813 69.763,25.307 L69.763,17.992 C69.763,17.739 69.851,17.442 70.236,17.442 L70.896,17.442 C71.182,17.442 71.413,17.706 71.413,17.992 C71.413,18.322 71.182,18.542 70.863,18.542 Z M74.097,23.206 L70.863,23.206 L70.863,24.9 L74.097,24.9 L74.097,23.206 Z M82.017,18.542 L78.783,18.542 C78.783,18.784 78.585,19.092 78.233,19.092 C77.881,19.092 77.683,18.784 77.683,18.542 L77.683,17.992 C77.683,17.75 77.881,17.442 78.233,17.442 L83.1170489,17.442 L83.117,20.632 C83.117,21.017 83.128,21.061 82.82,21.325 L81.28,22.656 C80.994,22.909 80.972,22.931 80.972,23.316 L80.972,25.45 C80.972,25.802 80.818,26 80.422,26 C80.026,26 79.872,25.802 79.872,25.45 L79.872,22.799 C79.872,22.436 79.883,22.403 80.158,22.161 L81.676,20.852 C82.039,20.533 82.017,20.544 82.017,20.06 L82.017,18.542 Z M87.803,21.171 L88.837,21.171 L88.837,18.542 L87.803,18.542 L87.803,21.171 Z M87.253,17.442 L89.387,17.442 C89.761,17.442 89.937,17.706 89.937,17.992 L89.937,21.171 C90.278,21.171 90.542,21.292 90.74,21.479 C90.938,21.666 91.037,21.941 91.037,22.282 L91.037,24.9 C91.037,25.571 90.619,26 89.937,26 L86.703,26 C86.021,26 85.603,25.571 85.603,24.9 L85.603,22.282 C85.603,21.941 85.702,21.666 85.9,21.479 C86.098,21.292 86.362,21.171 86.703,21.171 L86.703,17.992 C86.703,17.706 86.879,17.442 87.253,17.442 Z M86.703,24.9 L89.937,24.9 L89.937,22.271 L86.703,22.271 L86.703,24.9 Z M97.857,24.9 L97.857,21.358 L94.073,21.358 C93.765,21.358 93.523,21.094 93.523,20.808 L93.523,17.992 C93.523,17.706 93.765,17.442 94.073,17.442 L98.407,17.442 C98.715,17.442 98.957,17.706 98.957,17.992 L98.957,25.45 C98.957,25.747 98.737,26 98.407,26 L97.857,26 C97.527,26 97.307,25.747 97.307,25.45 C97.307,25.12 97.538,24.9 97.857,24.9 Z M94.623,20.258 L97.857,20.258 L97.857,18.542 L94.623,18.542 L94.623,20.258 Z M104.556,24.603 L103.764,24.603 C103.522,24.603 103.346,24.603 103.192,24.394 C103.071,24.229 103.071,24.108 103.071,23.899 L103.071,23.283 C103.071,23.074 103.071,22.953 103.192,22.788 C103.346,22.579 103.522,22.579 103.764,22.579 L104.556,22.579 C104.798,22.579 104.974,22.579 105.128,22.788 C105.249,22.953 105.249,23.074 105.249,23.283 L105.249,23.899 C105.249,24.108 105.249,24.229 105.128,24.394 C104.974,24.603 104.798,24.603 104.556,24.603 Z M104.556,20.863 L103.764,20.863 C103.522,20.863 103.346,20.863 103.192,20.654 C103.071,20.489 103.071,20.368 103.071,20.159 L103.071,19.543 C103.071,19.334 103.071,19.213 103.192,19.048 C103.346,18.839 103.522,18.839 103.764,18.839 L104.556,18.839 C104.798,18.839 104.974,18.839 105.128,19.048 C105.249,19.213 105.249,19.334 105.249,19.543 L105.249,20.159 C105.249,20.368 105.249,20.489 105.128,20.654 C104.974,20.863 104.798,20.863 104.556,20.863 Z" id=":123456789:" fill="#000000"></path>
        <path d="M130.363,17.442 L133.597,17.442 C134.202,17.442 134.697,17.937 134.697,18.542 L134.697,24.9 C134.697,25.516 134.224,26 133.597,26 L130.363,26 C129.736,26 129.263,25.516 129.263,24.9 L129.263,18.542 C129.263,17.937 129.758,17.442 130.363,17.442 Z M130.363,24.9 L133.597,24.9 L133.597,18.542 L130.363,18.542 L130.363,24.9 Z M138.283,17.442 L141.517,17.442 C142.122,17.442 142.617,17.937 142.617,18.542 L142.617,24.9 C142.617,25.516 142.144,26 141.517,26 L138.283,26 C137.656,26 137.183,25.516 137.183,24.9 L137.183,18.542 C137.183,17.937 137.678,17.442 138.283,17.442 Z M138.283,24.9 L141.517,24.9 L141.517,18.542 L138.283,18.542 L138.283,24.9 Z M146.203,17.442 L149.437,17.442 C150.042,17.442 150.537,17.937 150.537,18.542 L150.537,24.9 C150.537,25.516 150.064,26 149.437,26 L146.203,26 C145.576,26 145.103,25.516 145.103,24.9 L145.103,18.542 C145.103,17.937 145.598,17.442 146.203,17.442 Z M146.203,24.9 L149.437,24.9 L149.437,18.542 L146.203,18.542 L146.203,24.9 Z M156.29,24.9 L157.357,24.9 L157.357,22.678 C157.357,22.359 157.5,22.128 157.907,22.128 C158.314,22.128 158.457,22.359 158.457,22.678 L158.457,25.45 C158.457,25.846 158.193,26 157.907,26 L153.573,26 C153.287,26 153.023,25.846 153.023,25.45 C153.023,25.054 153.287,24.9 153.573,24.9 L155.19,24.9 L155.19,18.542 L153.573,18.542 C153.287,18.542 153.023,18.388 153.023,17.992 C153.023,17.596 153.287,17.442 153.573,17.442 L156.29,17.442 L156.29,24.9 Z M162.043,22.271 L162.043,24.9 L165.827,24.9 C166.113,24.9 166.377,25.054 166.377,25.45 C166.377,25.846 166.113,26 165.827,26 L160.943,26 L160.943,22.414 C160.943,21.589 161.361,21.171 162.186,21.171 L165.277,21.171 L165.277,18.542 L161.493,18.542 C161.207,18.542 160.943,18.388 160.943,17.992 C160.943,17.596 161.207,17.442 161.493,17.442 L165.145,17.442 C165.508,17.442 165.761,17.497 166.036,17.75 C166.344,18.036 166.377,18.333 166.377,18.729 L166.377,20.984 C166.377,21.38 166.344,21.677 166.036,21.963 C165.761,22.216 165.508,22.271 165.145,22.271 L162.043,22.271 Z M173.197,18.542 L169.413,18.542 C169.127,18.542 168.863,18.388 168.863,17.992 C168.863,17.596 169.127,17.442 169.413,17.442 L173.197,17.442 C173.824,17.442 174.297,17.915 174.297,18.542 L174.297,20.654 C174.297,21.094 174.209,21.413 173.868,21.721 C174.209,22.029 174.297,22.348 174.297,22.788 L174.297,24.9 C174.297,25.527 173.824,26 173.197,26 L169.413,26 C169.127,26 168.863,25.846 168.863,25.45 C168.863,25.054 169.127,24.9 169.413,24.9 L173.197,24.9 L173.197,23.074 C173.197,22.458 172.955,22.271 172.647,22.271 L170.491,22.271 C170.205,22.271 169.941,22.117 169.941,21.721 C169.941,21.325 170.205,21.171 170.491,21.171 L172.647,21.171 C172.955,21.171 173.197,20.984 173.197,20.368 L173.197,18.542 Z M178.433,22.106 L180.567,22.106 L180.567,18.927 C180.567,18.652 180.699,18.377 181.117,18.377 C181.535,18.377 181.667,18.652 181.667,18.927 L181.667,22.106 C181.953,22.106 182.217,22.26 182.217,22.656 C182.217,23.052 181.953,23.206 181.667,23.206 L181.667,25.45 C181.667,25.802 181.513,26 181.117,26 C180.721,26 180.567,25.802 180.567,25.45 L180.567,23.206 L177.333,23.206 L177.333,17.992 C177.333,17.717 177.465,17.442 177.883,17.442 C178.301,17.442 178.433,17.717 178.433,17.992 L178.433,22.106 Z M186.892,18.542 L186.892,21.171 L188.916,21.171 C189.268,21.171 189.532,21.226 189.796,21.479 C190.104,21.765 190.137,22.029 190.137,22.414 L190.137,24.768 C190.137,25.109 190.104,25.351 189.873,25.626 C189.598,25.956 189.312,26 188.916,26 L186.474,26 C186.188,26 186.023,25.923 185.748,25.802 L185.33,25.615 C185.033,25.483 184.703,25.384 184.703,24.999 C184.703,24.713 184.945,24.449 185.231,24.449 C185.363,24.449 185.462,24.482 185.583,24.537 L185.913,24.68 C186.067,24.746 186.32,24.9 186.496,24.9 L189.037,24.9 L189.037,22.271 L185.792,22.271 L185.792,17.442 L189.587,17.442 C189.873,17.442 190.137,17.596 190.137,17.992 C190.137,18.388 189.873,18.542 189.587,18.542 L186.892,18.542 Z M193.723,18.542 L193.723,22.106 L197.397,22.106 C197.947,22.106 198.057,22.337 198.057,22.843 L198.057,25.307 C198.057,25.824 197.837,26 197.342,26 L193.338,26 C192.821,26 192.623,25.813 192.623,25.307 L192.623,17.992 C192.623,17.739 192.711,17.442 193.096,17.442 L193.756,17.442 C194.042,17.442 194.273,17.706 194.273,17.992 C194.273,18.322 194.042,18.542 193.723,18.542 Z M196.957,23.206 L193.723,23.206 L193.723,24.9 L196.957,24.9 L196.957,23.206 Z M204.877,18.542 L201.643,18.542 C201.643,18.784 201.445,19.092 201.093,19.092 C200.741,19.092 200.543,18.784 200.543,18.542 L200.543,17.992 C200.543,17.75 200.741,17.442 201.093,17.442 L205.977049,17.442 L205.977,20.632 C205.977,21.017 205.988,21.061 205.68,21.325 L204.14,22.656 C203.854,22.909 203.832,22.931 203.832,23.316 L203.832,25.45 C203.832,25.802 203.678,26 203.282,26 C202.886,26 202.732,25.802 202.732,25.45 L202.732,22.799 C202.732,22.436 202.743,22.403 203.018,22.161 L204.536,20.852 C204.899,20.533 204.877,20.544 204.877,20.06 L204.877,18.542 Z M210.663,21.171 L211.697,21.171 L211.697,18.542 L210.663,18.542 L210.663,21.171 Z M210.113,17.442 L212.247,17.442 C212.621,17.442 212.797,17.706 212.797,17.992 L212.797,21.171 C213.138,21.171 213.402,21.292 213.6,21.479 C213.798,21.666 213.897,21.941 213.897,22.282 L213.897,24.9 C213.897,25.571 213.479,26 212.797,26 L209.563,26 C208.881,26 208.463,25.571 208.463,24.9 L208.463,22.282 C208.463,21.941 208.562,21.666 208.76,21.479 C208.958,21.292 209.222,21.171 209.563,21.171 L209.563,17.992 C209.563,17.706 209.739,17.442 210.113,17.442 Z M209.563,24.9 L212.797,24.9 L212.797,22.271 L209.563,22.271 L209.563,24.9 Z M220.717,24.9 L220.717,21.358 L216.933,21.358 C216.625,21.358 216.383,21.094 216.383,20.808 L216.383,17.992 C216.383,17.706 216.625,17.442 216.933,17.442 L221.267,17.442 C221.575,17.442 221.817,17.706 221.817,17.992 L221.817,25.45 C221.817,25.747 221.597,26 221.267,26 L220.717,26 C220.387,26 220.167,25.747 220.167,25.45 C220.167,25.12 220.398,24.9 220.717,24.9 Z M217.483,20.258 L220.717,20.258 L220.717,18.542 L217.483,18.542 L217.483,20.258 Z M227.416,24.603 L226.624,24.603 C226.382,24.603 226.206,24.603 226.052,24.394 C225.931,24.229 225.931,24.108 225.931,23.899 L225.931,23.283 C225.931,23.074 225.931,22.953 226.052,22.788 C226.206,22.579 226.382,22.579 226.624,22.579 L227.416,22.579 C227.658,22.579 227.834,22.579 227.988,22.788 C228.109,22.953 228.109,23.074 228.109,23.283 L228.109,23.899 C228.109,24.108 228.109,24.229 227.988,24.394 C227.834,24.603 227.658,24.603 227.416,24.603 Z M227.416,20.863 L226.624,20.863 C226.382,20.863 226.206,20.863 226.052,20.654 C225.931,20.489 225.931,20.368 225.931,20.159 L225.931,19.543 C225.931,19.334 225.931,19.213 226.052,19.048 C226.206,18.839 226.382,18.839 226.624,18.839 L227.416,18.839 C227.658,18.839 227.834,18.839 227.988,19.048 C228.109,19.213 228.109,19.334 228.109,19.543 L228.109,20.159 C228.109,20.368 228.109,20.489 227.988,20.654 C227.834,20.863 227.658,20.863 227.416,20.863 Z" id="000123456789:" fill="#000000"></path>
        <path d="M145.167969,42.1445312 L142.189453,42.1445312 L141.520508,44 L140.553711,44 L143.268555,36.890625 L144.088867,36.890625 L146.808594,44 L145.84668,44 L145.167969,42.1445312 Z M142.472656,41.3730469 L144.889648,41.3730469 L143.678711,38.0478516 L142.472656,41.3730469 Z M149.743164,43.3603516 C149.90267,43.3603516 150.055663,43.3343102 150.202148,43.2822266 C150.348634,43.230143 150.478027,43.1585291 150.590332,43.0673828 C150.702637,42.9762365 150.793782,42.8680019 150.86377,42.7426758 C150.933757,42.6173496 150.97526,42.481446 150.988281,42.3349609 L151.842773,42.3349609 C151.829753,42.5693371 151.765463,42.7931304 151.649902,43.0063477 C151.534342,43.2195649 151.382162,43.4067375 151.193359,43.5678711 C151.004556,43.7290047 150.785646,43.8575842 150.536621,43.9536133 C150.287596,44.0496424 150.023113,44.0976562 149.743164,44.0976562 C149.346027,44.0976562 149.000164,44.0268562 148.705566,43.8852539 C148.410969,43.7436516 148.166017,43.5524101 147.970703,43.3115234 C147.77539,43.0706368 147.629721,42.7906917 147.533691,42.4716797 C147.437662,42.1526677 147.389648,41.815757 147.389648,41.4609375 L147.389648,41.2558594 C147.389648,40.9010399 147.437662,40.5641292 147.533691,40.2451172 C147.629721,39.9261052 147.77539,39.6461601 147.970703,39.4052734 C148.166017,39.1643868 148.410155,38.9731452 148.703125,38.831543 C148.996095,38.6899407 149.341144,38.6191406 149.738281,38.6191406 C150.047528,38.6191406 150.328286,38.6679683 150.580566,38.765625 C150.832846,38.8632817 151.050943,38.9975577 151.234863,39.168457 C151.418783,39.3393563 151.562825,39.541991 151.666992,39.7763672 C151.771159,40.0107434 151.829753,40.2630195 151.842773,40.5332031 L150.988281,40.5332031 C150.97526,40.3704419 150.937012,40.2182624 150.873535,40.0766602 C150.810058,39.9350579 150.72461,39.8113612 150.617188,39.7055664 C150.509765,39.5997716 150.381999,39.5159508 150.233887,39.4541016 C150.085774,39.3922523 149.920574,39.3613281 149.738281,39.3613281 C149.458332,39.3613281 149.226401,39.4166661 149.04248,39.5273438 C148.85856,39.6380214 148.71045,39.7836905 148.598145,39.9643555 C148.485839,40.1450204 148.406901,40.3484689 148.361328,40.574707 C148.315755,40.8009451 148.292969,41.0279937 148.292969,41.2558594 L148.292969,41.4609375 C148.292969,41.6953137 148.315755,41.9256174 148.361328,42.1518555 C148.406901,42.3780936 148.485025,42.5807283 148.595703,42.7597656 C148.706381,42.938803 148.854491,43.0836583 149.040039,43.1943359 C149.225587,43.3050136 149.45996,43.3603516 149.743164,43.3603516 Z M154.977539,43.3603516 C155.137045,43.3603516 155.290038,43.3343102 155.436523,43.2822266 C155.583009,43.230143 155.712402,43.1585291 155.824707,43.0673828 C155.937012,42.9762365 156.028157,42.8680019 156.098145,42.7426758 C156.168132,42.6173496 156.209635,42.481446 156.222656,42.3349609 L157.077148,42.3349609 C157.064128,42.5693371 156.999838,42.7931304 156.884277,43.0063477 C156.768717,43.2195649 156.616537,43.4067375 156.427734,43.5678711 C156.238931,43.7290047 156.020021,43.8575842 155.770996,43.9536133 C155.521971,44.0496424 155.257488,44.0976562 154.977539,44.0976562 C154.580402,44.0976562 154.234539,44.0268562 153.939941,43.8852539 C153.645344,43.7436516 153.400392,43.5524101 153.205078,43.3115234 C153.009765,43.0706368 152.864096,42.7906917 152.768066,42.4716797 C152.672037,42.1526677 152.624023,41.815757 152.624023,41.4609375 L152.624023,41.2558594 C152.624023,40.9010399 152.672037,40.5641292 152.768066,40.2451172 C152.864096,39.9261052 153.009765,39.6461601 153.205078,39.4052734 C153.400392,39.1643868 153.64453,38.9731452 153.9375,38.831543 C154.23047,38.6899407 154.575519,38.6191406 154.972656,38.6191406 C155.281903,38.6191406 155.562661,38.6679683 155.814941,38.765625 C156.067221,38.8632817 156.285318,38.9975577 156.469238,39.168457 C156.653158,39.3393563 156.7972,39.541991 156.901367,39.7763672 C157.005534,40.0107434 157.064128,40.2630195 157.077148,40.5332031 L156.222656,40.5332031 C156.209635,40.3704419 156.171387,40.2182624 156.10791,40.0766602 C156.044433,39.9350579 155.958985,39.8113612 155.851562,39.7055664 C155.74414,39.5997716 155.616374,39.5159508 155.468262,39.4541016 C155.320149,39.3922523 155.154949,39.3613281 154.972656,39.3613281 C154.692707,39.3613281 154.460776,39.4166661 154.276855,39.5273438 C154.092935,39.6380214 153.944825,39.7836905 153.83252,39.9643555 C153.720214,40.1450204 153.641276,40.3484689 153.595703,40.574707 C153.55013,40.8009451 153.527344,41.0279937 153.527344,41.2558594 L153.527344,41.4609375 C153.527344,41.6953137 153.55013,41.9256174 153.595703,42.1518555 C153.641276,42.3780936 153.7194,42.5807283 153.830078,42.7597656 C153.940756,42.938803 154.088866,43.0836583 154.274414,43.1943359 C154.459962,43.3050136 154.694335,43.3603516 154.977539,43.3603516 Z M157.853516,41.3095703 C157.853516,40.9254538 157.909667,40.5698259 158.021973,40.2426758 C158.134278,39.9155257 158.293782,39.6315116 158.500488,39.390625 C158.707195,39.1497384 158.958657,38.9609382 159.254883,38.8242188 C159.551108,38.6874993 159.883136,38.6191406 160.250977,38.6191406 C160.625327,38.6191406 160.961424,38.6874993 161.259277,38.8242188 C161.55713,38.9609382 161.81022,39.1497384 162.018555,39.390625 C162.226889,39.6315116 162.386393,39.9155257 162.49707,40.2426758 C162.607748,40.5698259 162.663086,40.9254538 162.663086,41.3095703 L162.663086,41.4169922 C162.663086,41.8011087 162.607748,42.1567366 162.49707,42.4838867 C162.386393,42.8110368 162.226889,43.0942371 162.018555,43.3334961 C161.81022,43.5727551 161.557944,43.7599277 161.261719,43.8950195 C160.965493,44.0301114 160.631838,44.0976562 160.260742,44.0976562 C159.889647,44.0976562 159.555991,44.0301114 159.259766,43.8950195 C158.96354,43.7599277 158.711264,43.5727551 158.50293,43.3334961 C158.294595,43.0942371 158.134278,42.8110368 158.021973,42.4838867 C157.909667,42.1567366 157.853516,41.8011087 157.853516,41.4169922 L157.853516,41.3095703 Z M158.761719,41.4169922 C158.761719,41.6806654 158.792643,41.9296863 158.854492,42.1640625 C158.916341,42.3984387 159.009928,42.6043285 159.135254,42.7817383 C159.26058,42.959148 159.416828,43.0999344 159.604004,43.2041016 C159.791179,43.3082687 160.01009,43.3603516 160.260742,43.3603516 C160.508139,43.3603516 160.726236,43.3082687 160.915039,43.2041016 C161.103842,43.0999344 161.260091,42.959148 161.383789,42.7817383 C161.507488,42.6043285 161.601074,42.3984387 161.664551,42.1640625 C161.728028,41.9296863 161.759766,41.6806654 161.759766,41.4169922 L161.759766,41.3095703 C161.759766,41.0491523 161.728028,40.8009452 161.664551,40.5649414 C161.601074,40.3289376 161.506674,40.122234 161.381348,39.9448242 C161.256022,39.7674145 161.098959,39.6258143 160.910156,39.5200195 C160.721353,39.4142247 160.501629,39.3613281 160.250977,39.3613281 C160.003579,39.3613281 159.78711,39.4142247 159.601562,39.5200195 C159.416015,39.6258143 159.26058,39.7674145 159.135254,39.9448242 C159.009928,40.122234 158.916341,40.3289376 158.854492,40.5649414 C158.792643,40.8009452 158.761719,41.0491523 158.761719,41.3095703 L158.761719,41.4169922 Z M167.057617,43.4775391 C166.891601,43.6728525 166.681642,43.825032 166.427734,43.934082 C166.173827,44.0431321 165.86784,44.0976562 165.509766,44.0976562 C165.249348,44.0976562 165.013347,44.0610355 164.801758,43.987793 C164.590168,43.9145504 164.407878,43.7989917 164.254883,43.6411133 C164.101887,43.4832349 163.983887,43.2797864 163.900879,43.0307617 C163.817871,42.781737 163.776367,42.4814471 163.776367,42.1298828 L163.776367,38.7167969 L164.679688,38.7167969 L164.679688,42.1396484 C164.679688,42.3772798 164.707356,42.5734042 164.762695,42.7280273 C164.818034,42.8826505 164.891276,43.0047196 164.982422,43.0942383 C165.073568,43.183757 165.177734,43.2456053 165.294922,43.2797852 C165.41211,43.313965 165.532551,43.3310547 165.65625,43.3310547 C166.02409,43.3310547 166.319498,43.2610684 166.54248,43.1210938 C166.765463,42.9811191 166.929036,42.7939465 167.033203,42.5595703 L167.033203,38.7167969 L167.936523,38.7167969 L167.936523,44 L167.077148,44 L167.057617,43.4775391 Z M170.163086,38.7167969 L170.192383,39.3808594 C170.381186,39.143228 170.609048,38.9568692 170.875977,38.8217773 C171.142905,38.6866855 171.442381,38.6191406 171.774414,38.6191406 C172.031577,38.6191406 172.264322,38.6541338 172.472656,38.7241211 C172.680991,38.7941084 172.858398,38.906412 173.004883,39.0610352 C173.151368,39.2156583 173.264485,39.414224 173.344238,39.6567383 C173.423991,39.8992525 173.463867,40.1930321 173.463867,40.5380859 L173.463867,44 L172.560547,44 L172.560547,40.5283203 C172.560547,40.3232412 172.537761,40.1482755 172.492188,40.003418 C172.446614,39.8585605 172.379069,39.7405604 172.289551,39.6494141 C172.200032,39.5582678 172.089356,39.4915367 171.95752,39.4492188 C171.825683,39.4069008 171.673503,39.3857422 171.500977,39.3857422 C171.208006,39.3857422 170.950847,39.4638664 170.729492,39.6201172 C170.508137,39.776368 170.335613,39.981444 170.211914,40.2353516 L170.211914,44 L169.308594,44 L169.308594,38.7167969 L170.163086,38.7167969 Z M176.051758,37.4375 L176.051758,38.7167969 L177.038086,38.7167969 L177.038086,39.4150391 L176.051758,39.4150391 L176.051758,42.6914062 C176.051758,42.8281257 176.068034,42.9379879 176.100586,43.0209961 C176.133138,43.1040043 176.176269,43.168294 176.22998,43.2138672 C176.283692,43.2594403 176.34554,43.2895507 176.415527,43.3041992 C176.485515,43.3188477 176.557942,43.3261719 176.632812,43.3261719 C176.707683,43.3261719 176.786621,43.3188477 176.869629,43.3041992 C176.952637,43.2895507 177.016927,43.2773438 177.0625,43.2675781 L177.0625,44 C176.990885,44.0195313 176.898113,44.04069 176.78418,44.0634766 C176.670247,44.0862631 176.531902,44.0976562 176.369141,44.0976562 C176.203124,44.0976562 176.046062,44.0740562 175.897949,44.0268555 C175.749836,43.9796547 175.620443,43.9007167 175.509766,43.7900391 C175.399088,43.6793614 175.311198,43.5336923 175.246094,43.3530273 C175.180989,43.1723624 175.148438,42.9501966 175.148438,42.6865234 L175.148438,39.4150391 L174.186523,39.4150391 L174.186523,38.7167969 L175.148438,38.7167969 L175.148438,37.4375 L176.051758,37.4375 Z M186.173828,44 L185.231445,44 L181.652344,38.5214844 L181.652344,44 L180.709961,44 L180.709961,36.890625 L181.652344,36.890625 L185.241211,42.3935547 L185.241211,36.890625 L186.173828,36.890625 L186.173828,44 Z M190.958984,43.4775391 C190.792968,43.6728525 190.583009,43.825032 190.329102,43.934082 C190.075194,44.0431321 189.769208,44.0976562 189.411133,44.0976562 C189.150715,44.0976562 188.914715,44.0610355 188.703125,43.987793 C188.491535,43.9145504 188.309246,43.7989917 188.15625,43.6411133 C188.003254,43.4832349 187.885254,43.2797864 187.802246,43.0307617 C187.719238,42.781737 187.677734,42.4814471 187.677734,42.1298828 L187.677734,38.7167969 L188.581055,38.7167969 L188.581055,42.1396484 C188.581055,42.3772798 188.608724,42.5734042 188.664062,42.7280273 C188.719401,42.8826505 188.792643,43.0047196 188.883789,43.0942383 C188.974935,43.183757 189.079101,43.2456053 189.196289,43.2797852 C189.313477,43.313965 189.433919,43.3310547 189.557617,43.3310547 C189.925458,43.3310547 190.220865,43.2610684 190.443848,43.1210938 C190.666831,42.9811191 190.830403,42.7939465 190.93457,42.5595703 L190.93457,38.7167969 L191.837891,38.7167969 L191.837891,44 L190.978516,44 L190.958984,43.4775391 Z M194.05957,38.7167969 L194.083984,39.3027344 C194.266277,39.0878896 194.486815,38.920248 194.745605,38.7998047 C195.004396,38.6793614 195.306313,38.6191406 195.651367,38.6191406 C195.993166,38.6191406 196.295083,38.6866855 196.557129,38.8217773 C196.819174,38.9568692 197.020182,39.1725246 197.160156,39.46875 C197.335938,39.2148425 197.564614,39.0097664 197.846191,38.8535156 C198.127768,38.6972648 198.46061,38.6191406 198.844727,38.6191406 C199.127931,38.6191406 199.37858,38.6557614 199.59668,38.7290039 C199.81478,38.8022465 199.999511,38.9169914 200.150879,39.0732422 C200.302247,39.229493 200.416992,39.4280587 200.495117,39.6689453 C200.573243,39.9098319 200.612305,40.1962874 200.612305,40.5283203 L200.612305,44 L199.708984,44 L199.708984,40.5234375 C199.708984,40.3020822 199.682129,40.1181648 199.628418,39.9716797 C199.574707,39.8251946 199.499024,39.7080083 199.401367,39.6201172 C199.30371,39.5322261 199.184897,39.4711916 199.044922,39.4370117 C198.904947,39.4028319 198.750326,39.3857422 198.581055,39.3857422 C198.395507,39.3857422 198.231121,39.4150388 198.087891,39.4736328 C197.944661,39.5322269 197.821778,39.6111649 197.719238,39.7104492 C197.616699,39.8097336 197.535319,39.9269199 197.475098,40.0620117 C197.414876,40.1971035 197.376628,40.3411451 197.360352,40.4941406 L197.360352,44 L196.452148,44 L196.452148,40.5283203 C196.452148,40.3232412 196.425293,40.1482755 196.371582,40.003418 C196.317871,39.8585605 196.242188,39.7405604 196.144531,39.6494141 C196.046875,39.5582678 195.928874,39.4915367 195.790527,39.4492188 C195.65218,39.4069008 195.496746,39.3857422 195.324219,39.3857422 C195.001952,39.3857422 194.743165,39.4557285 194.547852,39.5957031 C194.352538,39.7356778 194.206055,39.9179676 194.108398,40.1425781 L194.108398,44 L193.205078,44 L193.205078,38.7167969 L194.05957,38.7167969 Z M206.447266,41.4169922 C206.447266,41.8043639 206.401693,42.1616195 206.310547,42.4887695 C206.219401,42.8159196 206.085938,43.0991199 205.910156,43.3383789 C205.734374,43.5776379 205.519533,43.7639967 205.265625,43.8974609 C205.011717,44.0309251 204.722007,44.0976562 204.396484,44.0976562 C204.048175,44.0976562 203.747072,44.0366217 203.493164,43.9145508 C203.239257,43.7924799 203.024415,43.6175142 202.848633,43.3896484 L202.804688,44 L201.974609,44 L201.974609,36.5 L202.87793,36.5 L202.87793,39.2978516 C203.053712,39.0797515 203.265298,38.91211 203.512695,38.7949219 C203.760092,38.6777338 204.051431,38.6191406 204.386719,38.6191406 C204.718752,38.6191406 205.012531,38.6842441 205.268066,38.8144531 C205.523602,38.9446621 205.738443,39.1277657 205.912598,39.3637695 C206.086752,39.5997733 206.219401,39.8829736 206.310547,40.2133789 C206.401693,40.5437842 206.447266,40.9108053 206.447266,41.3144531 L206.447266,41.4169922 Z M205.543945,41.3144531 C205.543945,41.0507799 205.519531,40.8025728 205.470703,40.5698242 C205.421875,40.3370757 205.342937,40.1328134 205.233887,39.9570312 C205.124837,39.7812491 204.982423,39.6420904 204.806641,39.5395508 C204.630858,39.4370112 204.416017,39.3857422 204.162109,39.3857422 C203.996093,39.3857422 203.846355,39.4069008 203.712891,39.4492188 C203.579426,39.4915367 203.459799,39.5501298 203.354004,39.625 C203.248209,39.6998702 203.15625,39.7877599 203.078125,39.8886719 C203,39.9895838 202.933269,40.0986322 202.87793,40.2158203 L202.87793,42.5009766 C202.936524,42.6181646 203.005696,42.727213 203.085449,42.828125 C203.165202,42.929037 203.257975,43.0169267 203.36377,43.0917969 C203.469564,43.166667 203.589192,43.2252602 203.722656,43.2675781 C203.85612,43.309896 204.005859,43.3310547 204.171875,43.3310547 C204.416017,43.3310547 204.624348,43.2805995 204.796875,43.1796875 C204.969402,43.0787755 205.111002,42.9420582 205.22168,42.7695312 C205.332357,42.5970043 205.413737,42.3943697 205.46582,42.1616211 C205.517904,41.9288725 205.543945,41.6806654 205.543945,41.4169922 L205.543945,41.3144531 Z M209.777344,44.0976562 C209.409503,44.0976562 209.076662,44.0341803 208.778809,43.9072266 C208.480956,43.7802728 208.226238,43.6036795 208.014648,43.3774414 C207.803059,43.1512033 207.6403,42.8818375 207.526367,42.5693359 C207.412434,42.2568344 207.355469,41.9150409 207.355469,41.5439453 L207.355469,41.3388672 C207.355469,40.9091775 207.419758,40.5250668 207.54834,40.1865234 C207.676921,39.8479801 207.848632,39.5631522 208.063477,39.3320312 C208.278321,39.1009103 208.524087,38.924317 208.800781,38.8022461 C209.077475,38.6801752 209.365558,38.6191406 209.665039,38.6191406 C210.042645,38.6191406 210.368163,38.6850579 210.641602,38.8168945 C210.91504,38.9487311 211.140461,39.1302072 211.317871,39.3613281 C211.495281,39.5924491 211.626302,39.8658838 211.710938,40.1816406 C211.795573,40.4973974 211.837891,40.8408185 211.837891,41.2119141 L211.837891,41.6171875 L208.258789,41.6171875 C208.2653,41.8613293 208.305175,42.0891917 208.378418,42.3007812 C208.451661,42.5123708 208.555826,42.6962883 208.690918,42.8525391 C208.82601,43.0087898 208.988769,43.1324865 209.179199,43.2236328 C209.36963,43.3147791 209.585285,43.3603516 209.826172,43.3603516 C210.145184,43.3603516 210.415363,43.295248 210.636719,43.1650391 C210.858074,43.0348301 211.051757,42.8623058 211.217773,42.6474609 L211.769531,43.0771484 C211.684895,43.2073574 211.582357,43.3334955 211.461914,43.4555664 C211.341471,43.5776373 211.200684,43.6866857 211.039551,43.7827148 C210.878417,43.878744 210.693686,43.9552406 210.485352,44.012207 C210.277017,44.0691735 210.041017,44.0976562 209.777344,44.0976562 Z M209.665039,39.3613281 C209.482746,39.3613281 209.315105,39.3946937 209.162109,39.4614258 C209.009114,39.5281579 208.872396,39.6249994 208.751953,39.7519531 C208.63151,39.8789069 208.531413,40.0367829 208.45166,40.2255859 C208.371907,40.414389 208.317383,40.6308582 208.288086,40.875 L210.93457,40.875 L210.93457,40.8066406 C210.924805,40.6308585 210.896322,40.4567066 210.849121,40.2841797 C210.80192,40.1116528 210.728679,39.9570319 210.629395,39.8203125 C210.53011,39.6835931 210.402345,39.5729171 210.246094,39.4882812 C210.089843,39.4036454 209.89616,39.3613281 209.665039,39.3613281 Z M215.436523,39.5273438 C215.358398,39.5143229 215.28597,39.5053711 215.219238,39.5004883 C215.152506,39.4956054 215.076823,39.4931641 214.992188,39.4931641 C214.679686,39.4931641 214.424968,39.5615228 214.228027,39.6982422 C214.031086,39.8349616 213.88379,40.0188791 213.786133,40.25 L213.786133,44 L212.882812,44 L212.882812,38.7167969 L213.761719,38.7167969 L213.776367,39.3271484 C213.913087,39.1090484 214.083983,38.9365241 214.289062,38.8095703 C214.494142,38.6826166 214.743163,38.6191406 215.036133,38.6191406 C215.101237,38.6191406 215.176106,38.6264648 215.260742,38.6411133 C215.345378,38.6557618 215.403971,38.6712239 215.436523,38.6875 L215.436523,39.5273438 Z" id="Account-Number" fill="#666666"></path>
    </g>
</svg>