<?xml version="1.0" encoding="UTF-8"?>
<svg width="240px" height="60px" viewBox="0 0 240 60" version="1.1" xmlns="http://www.w3.org/2000/svg" xmlns:xlink="http://www.w3.org/1999/xlink">
    <!-- Generator: Sketch 50.2 (55047) - http://www.bohemiancoding.com/sketch -->
    <title>Bank Numbers</title>
    <desc>Created with Sketch.</desc>
    <defs></defs>
    <g id="Bank-Numbers" stroke="none" stroke-width="1" fill="none" fill-rule="evenodd">
        <rect id="Rectangle-2-Copy-16" stroke="#E3E3E3" fill-opacity="0.08" fill="#979797" x="0.5" y="0.5" width="239" height="59"></rect>
        <text id="9-Digit-Routing-Numb" font-family="Roboto-Regular, Roboto" font-size="10" font-weight="normal" fill="#666666">
            <tspan x="14" y="44">9 Digit Routing Number</tspan>
        </text>
        <path d="M25.356,24.603 L24.564,24.603 C24.322,24.603 24.146,24.603 23.992,24.394 C23.871,24.229 23.871,24.108 23.871,23.899 L23.871,23.283 C23.871,23.074 23.871,22.953 23.992,22.788 C24.146,22.579 24.322,22.579 24.564,22.579 L25.356,22.579 C25.598,22.579 25.774,22.579 25.928,22.788 C26.049,22.953 26.049,23.074 26.049,23.283 L26.049,23.899 C26.049,24.108 26.049,24.229 25.928,24.394 C25.774,24.603 25.598,24.603 25.356,24.603 Z M25.356,20.863 L24.564,20.863 C24.322,20.863 24.146,20.863 23.992,20.654 C23.871,20.489 23.871,20.368 23.871,20.159 L23.871,19.543 C23.871,19.334 23.871,19.213 23.992,19.048 C24.146,18.839 24.322,18.839 24.564,18.839 L25.356,18.839 C25.598,18.839 25.774,18.839 25.928,19.048 C26.049,19.213 26.049,19.334 26.049,19.543 L26.049,20.159 C26.049,20.368 26.049,20.489 25.928,20.654 C25.774,20.863 25.598,20.863 25.356,20.863 Z M33.43,24.9 L34.497,24.9 L34.497,22.678 C34.497,22.359 34.64,22.128 35.047,22.128 C35.454,22.128 35.597,22.359 35.597,22.678 L35.597,25.45 C35.597,25.846 35.333,26 35.047,26 L30.713,26 C30.427,26 30.163,25.846 30.163,25.45 C30.163,25.054 30.427,24.9 30.713,24.9 L32.33,24.9 L32.33,18.542 L30.713,18.542 C30.427,18.542 30.163,18.388 30.163,17.992 C30.163,17.596 30.427,17.442 30.713,17.442 L33.43,17.442 L33.43,24.9 Z M39.183,22.271 L39.183,24.9 L42.967,24.9 C43.253,24.9 43.517,25.054 43.517,25.45 C43.517,25.846 43.253,26 42.967,26 L38.083,26 L38.083,22.414 C38.083,21.589 38.501,21.171 39.326,21.171 L42.417,21.171 L42.417,18.542 L38.633,18.542 C38.347,18.542 38.083,18.388 38.083,17.992 C38.083,17.596 38.347,17.442 38.633,17.442 L42.285,17.442 C42.648,17.442 42.901,17.497 43.176,17.75 C43.484,18.036 43.517,18.333 43.517,18.729 L43.517,20.984 C43.517,21.38 43.484,21.677 43.176,21.963 C42.901,22.216 42.648,22.271 42.285,22.271 L39.183,22.271 Z M50.337,18.542 L46.553,18.542 C46.267,18.542 46.003,18.388 46.003,17.992 C46.003,17.596 46.267,17.442 46.553,17.442 L50.337,17.442 C50.964,17.442 51.437,17.915 51.437,18.542 L51.437,20.654 C51.437,21.094 51.349,21.413 51.008,21.721 C51.349,22.029 51.437,22.348 51.437,22.788 L51.437,24.9 C51.437,25.527 50.964,26 50.337,26 L46.553,26 C46.267,26 46.003,25.846 46.003,25.45 C46.003,25.054 46.267,24.9 46.553,24.9 L50.337,24.9 L50.337,23.074 C50.337,22.458 50.095,22.271 49.787,22.271 L47.631,22.271 C47.345,22.271 47.081,22.117 47.081,21.721 C47.081,21.325 47.345,21.171 47.631,21.171 L49.787,21.171 C50.095,21.171 50.337,20.984 50.337,20.368 L50.337,18.542 Z M55.573,22.106 L57.707,22.106 L57.707,18.927 C57.707,18.652 57.839,18.377 58.257,18.377 C58.675,18.377 58.807,18.652 58.807,18.927 L58.807,22.106 C59.093,22.106 59.357,22.26 59.357,22.656 C59.357,23.052 59.093,23.206 58.807,23.206 L58.807,25.45 C58.807,25.802 58.653,26 58.257,26 C57.861,26 57.707,25.802 57.707,25.45 L57.707,23.206 L54.473,23.206 L54.473,17.992 C54.473,17.717 54.605,17.442 55.023,17.442 C55.441,17.442 55.573,17.717 55.573,17.992 L55.573,22.106 Z M64.032,18.542 L64.032,21.171 L66.056,21.171 C66.408,21.171 66.672,21.226 66.936,21.479 C67.244,21.765 67.277,22.029 67.277,22.414 L67.277,24.768 C67.277,25.109 67.244,25.351 67.013,25.626 C66.738,25.956 66.452,26 66.056,26 L63.614,26 C63.328,26 63.163,25.923 62.888,25.802 L62.47,25.615 C62.173,25.483 61.843,25.384 61.843,24.999 C61.843,24.713 62.085,24.449 62.371,24.449 C62.503,24.449 62.602,24.482 62.723,24.537 L63.053,24.68 C63.207,24.746 63.46,24.9 63.636,24.9 L66.177,24.9 L66.177,22.271 L62.932,22.271 L62.932,17.442 L66.727,17.442 C67.013,17.442 67.277,17.596 67.277,17.992 C67.277,18.388 67.013,18.542 66.727,18.542 L64.032,18.542 Z M70.863,18.542 L70.863,22.106 L74.537,22.106 C75.087,22.106 75.197,22.337 75.197,22.843 L75.197,25.307 C75.197,25.824 74.977,26 74.482,26 L70.478,26 C69.961,26 69.763,25.813 69.763,25.307 L69.763,17.992 C69.763,17.739 69.851,17.442 70.236,17.442 L70.896,17.442 C71.182,17.442 71.413,17.706 71.413,17.992 C71.413,18.322 71.182,18.542 70.863,18.542 Z M74.097,23.206 L70.863,23.206 L70.863,24.9 L74.097,24.9 L74.097,23.206 Z M82.017,18.542 L78.783,18.542 C78.783,18.784 78.585,19.092 78.233,19.092 C77.881,19.092 77.683,18.784 77.683,18.542 L77.683,17.992 C77.683,17.75 77.881,17.442 78.233,17.442 L83.1170489,17.442 L83.117,20.632 C83.117,21.017 83.128,21.061 82.82,21.325 L81.28,22.656 C80.994,22.909 80.972,22.931 80.972,23.316 L80.972,25.45 C80.972,25.802 80.818,26 80.422,26 C80.026,26 79.872,25.802 79.872,25.45 L79.872,22.799 C79.872,22.436 79.883,22.403 80.158,22.161 L81.676,20.852 C82.039,20.533 82.017,20.544 82.017,20.06 L82.017,18.542 Z M87.803,21.171 L88.837,21.171 L88.837,18.542 L87.803,18.542 L87.803,21.171 Z M87.253,17.442 L89.387,17.442 C89.761,17.442 89.937,17.706 89.937,17.992 L89.937,21.171 C90.278,21.171 90.542,21.292 90.74,21.479 C90.938,21.666 91.037,21.941 91.037,22.282 L91.037,24.9 C91.037,25.571 90.619,26 89.937,26 L86.703,26 C86.021,26 85.603,25.571 85.603,24.9 L85.603,22.282 C85.603,21.941 85.702,21.666 85.9,21.479 C86.098,21.292 86.362,21.171 86.703,21.171 L86.703,17.992 C86.703,17.706 86.879,17.442 87.253,17.442 Z M86.703,24.9 L89.937,24.9 L89.937,22.271 L86.703,22.271 L86.703,24.9 Z M97.857,24.9 L97.857,21.358 L94.073,21.358 C93.765,21.358 93.523,21.094 93.523,20.808 L93.523,17.992 C93.523,17.706 93.765,17.442 94.073,17.442 L98.407,17.442 C98.715,17.442 98.957,17.706 98.957,17.992 L98.957,25.45 C98.957,25.747 98.737,26 98.407,26 L97.857,26 C97.527,26 97.307,25.747 97.307,25.45 C97.307,25.12 97.538,24.9 97.857,24.9 Z M94.623,20.258 L97.857,20.258 L97.857,18.542 L94.623,18.542 L94.623,20.258 Z M104.556,24.603 L103.764,24.603 C103.522,24.603 103.346,24.603 103.192,24.394 C103.071,24.229 103.071,24.108 103.071,23.899 L103.071,23.283 C103.071,23.074 103.071,22.953 103.192,22.788 C103.346,22.579 103.522,22.579 103.764,22.579 L104.556,22.579 C104.798,22.579 104.974,22.579 105.128,22.788 C105.249,22.953 105.249,23.074 105.249,23.283 L105.249,23.899 C105.249,24.108 105.249,24.229 105.128,24.394 C104.974,24.603 104.798,24.603 104.556,24.603 Z M104.556,20.863 L103.764,20.863 C103.522,20.863 103.346,20.863 103.192,20.654 C103.071,20.489 103.071,20.368 103.071,20.159 L103.071,19.543 C103.071,19.334 103.071,19.213 103.192,19.048 C103.346,18.839 103.522,18.839 103.764,18.839 L104.556,18.839 C104.798,18.839 104.974,18.839 105.128,19.048 C105.249,19.213 105.249,19.334 105.249,19.543 L105.249,20.159 C105.249,20.368 105.249,20.489 105.128,20.654 C104.974,20.863 104.798,20.863 104.556,20.863 Z" id=":123456789:" fill="#000000"></path>
        <path d="M130.363,17.442 L133.597,17.442 C134.202,17.442 134.697,17.937 134.697,18.542 L134.697,24.9 C134.697,25.516 134.224,26 133.597,26 L130.363,26 C129.736,26 129.263,25.516 129.263,24.9 L129.263,18.542 C129.263,17.937 129.758,17.442 130.363,17.442 Z M130.363,24.9 L133.597,24.9 L133.597,18.542 L130.363,18.542 L130.363,24.9 Z M138.283,17.442 L141.517,17.442 C142.122,17.442 142.617,17.937 142.617,18.542 L142.617,24.9 C142.617,25.516 142.144,26 141.517,26 L138.283,26 C137.656,26 137.183,25.516 137.183,24.9 L137.183,18.542 C137.183,17.937 137.678,17.442 138.283,17.442 Z M138.283,24.9 L141.517,24.9 L141.517,18.542 L138.283,18.542 L138.283,24.9 Z M146.203,17.442 L149.437,17.442 C150.042,17.442 150.537,17.937 150.537,18.542 L150.537,24.9 C150.537,25.516 150.064,26 149.437,26 L146.203,26 C145.576,26 145.103,25.516 145.103,24.9 L145.103,18.542 C145.103,17.937 145.598,17.442 146.203,17.442 Z M146.203,24.9 L149.437,24.9 L149.437,18.542 L146.203,18.542 L146.203,24.9 Z M156.29,24.9 L157.357,24.9 L157.357,22.678 C157.357,22.359 157.5,22.128 157.907,22.128 C158.314,22.128 158.457,22.359 158.457,22.678 L158.457,25.45 C158.457,25.846 158.193,26 157.907,26 L153.573,26 C153.287,26 153.023,25.846 153.023,25.45 C153.023,25.054 153.287,24.9 153.573,24.9 L155.19,24.9 L155.19,18.542 L153.573,18.542 C153.287,18.542 153.023,18.388 153.023,17.992 C153.023,17.596 153.287,17.442 153.573,17.442 L156.29,17.442 L156.29,24.9 Z M162.043,22.271 L162.043,24.9 L165.827,24.9 C166.113,24.9 166.377,25.054 166.377,25.45 C166.377,25.846 166.113,26 165.827,26 L160.943,26 L160.943,22.414 C160.943,21.589 161.361,21.171 162.186,21.171 L165.277,21.171 L165.277,18.542 L161.493,18.542 C161.207,18.542 160.943,18.388 160.943,17.992 C160.943,17.596 161.207,17.442 161.493,17.442 L165.145,17.442 C165.508,17.442 165.761,17.497 166.036,17.75 C166.344,18.036 166.377,18.333 166.377,18.729 L166.377,20.984 C166.377,21.38 166.344,21.677 166.036,21.963 C165.761,22.216 165.508,22.271 165.145,22.271 L162.043,22.271 Z M173.197,18.542 L169.413,18.542 C169.127,18.542 168.863,18.388 168.863,17.992 C168.863,17.596 169.127,17.442 169.413,17.442 L173.197,17.442 C173.824,17.442 174.297,17.915 174.297,18.542 L174.297,20.654 C174.297,21.094 174.209,21.413 173.868,21.721 C174.209,22.029 174.297,22.348 174.297,22.788 L174.297,24.9 C174.297,25.527 173.824,26 173.197,26 L169.413,26 C169.127,26 168.863,25.846 168.863,25.45 C168.863,25.054 169.127,24.9 169.413,24.9 L173.197,24.9 L173.197,23.074 C173.197,22.458 172.955,22.271 172.647,22.271 L170.491,22.271 C170.205,22.271 169.941,22.117 169.941,21.721 C169.941,21.325 170.205,21.171 170.491,21.171 L172.647,21.171 C172.955,21.171 173.197,20.984 173.197,20.368 L173.197,18.542 Z M178.433,22.106 L180.567,22.106 L180.567,18.927 C180.567,18.652 180.699,18.377 181.117,18.377 C181.535,18.377 181.667,18.652 181.667,18.927 L181.667,22.106 C181.953,22.106 182.217,22.26 182.217,22.656 C182.217,23.052 181.953,23.206 181.667,23.206 L181.667,25.45 C181.667,25.802 181.513,26 181.117,26 C180.721,26 180.567,25.802 180.567,25.45 L180.567,23.206 L177.333,23.206 L177.333,17.992 C177.333,17.717 177.465,17.442 177.883,17.442 C178.301,17.442 178.433,17.717 178.433,17.992 L178.433,22.106 Z M186.892,18.542 L186.892,21.171 L188.916,21.171 C189.268,21.171 189.532,21.226 189.796,21.479 C190.104,21.765 190.137,22.029 190.137,22.414 L190.137,24.768 C190.137,25.109 190.104,25.351 189.873,25.626 C189.598,25.956 189.312,26 188.916,26 L186.474,26 C186.188,26 186.023,25.923 185.748,25.802 L185.33,25.615 C185.033,25.483 184.703,25.384 184.703,24.999 C184.703,24.713 184.945,24.449 185.231,24.449 C185.363,24.449 185.462,24.482 185.583,24.537 L185.913,24.68 C186.067,24.746 186.32,24.9 186.496,24.9 L189.037,24.9 L189.037,22.271 L185.792,22.271 L185.792,17.442 L189.587,17.442 C189.873,17.442 190.137,17.596 190.137,17.992 C190.137,18.388 189.873,18.542 189.587,18.542 L186.892,18.542 Z M193.723,18.542 L193.723,22.106 L197.397,22.106 C197.947,22.106 198.057,22.337 198.057,22.843 L198.057,25.307 C198.057,25.824 197.837,26 197.342,26 L193.338,26 C192.821,26 192.623,25.813 192.623,25.307 L192.623,17.992 C192.623,17.739 192.711,17.442 193.096,17.442 L193.756,17.442 C194.042,17.442 194.273,17.706 194.273,17.992 C194.273,18.322 194.042,18.542 193.723,18.542 Z M196.957,23.206 L193.723,23.206 L193.723,24.9 L196.957,24.9 L196.957,23.206 Z M204.877,18.542 L201.643,18.542 C201.643,18.784 201.445,19.092 201.093,19.092 C200.741,19.092 200.543,18.784 200.543,18.542 L200.543,17.992 C200.543,17.75 200.741,17.442 201.093,17.442 L205.977049,17.442 L205.977,20.632 C205.977,21.017 205.988,21.061 205.68,21.325 L204.14,22.656 C203.854,22.909 203.832,22.931 203.832,23.316 L203.832,25.45 C203.832,25.802 203.678,26 203.282,26 C202.886,26 202.732,25.802 202.732,25.45 L202.732,22.799 C202.732,22.436 202.743,22.403 203.018,22.161 L204.536,20.852 C204.899,20.533 204.877,20.544 204.877,20.06 L204.877,18.542 Z M210.663,21.171 L211.697,21.171 L211.697,18.542 L210.663,18.542 L210.663,21.171 Z M210.113,17.442 L212.247,17.442 C212.621,17.442 212.797,17.706 212.797,17.992 L212.797,21.171 C213.138,21.171 213.402,21.292 213.6,21.479 C213.798,21.666 213.897,21.941 213.897,22.282 L213.897,24.9 C213.897,25.571 213.479,26 212.797,26 L209.563,26 C208.881,26 208.463,25.571 208.463,24.9 L208.463,22.282 C208.463,21.941 208.562,21.666 208.76,21.479 C208.958,21.292 209.222,21.171 209.563,21.171 L209.563,17.992 C209.563,17.706 209.739,17.442 210.113,17.442 Z M209.563,24.9 L212.797,24.9 L212.797,22.271 L209.563,22.271 L209.563,24.9 Z M220.717,24.9 L220.717,21.358 L216.933,21.358 C216.625,21.358 216.383,21.094 216.383,20.808 L216.383,17.992 C216.383,17.706 216.625,17.442 216.933,17.442 L221.267,17.442 C221.575,17.442 221.817,17.706 221.817,17.992 L221.817,25.45 C221.817,25.747 221.597,26 221.267,26 L220.717,26 C220.387,26 220.167,25.747 220.167,25.45 C220.167,25.12 220.398,24.9 220.717,24.9 Z M217.483,20.258 L220.717,20.258 L220.717,18.542 L217.483,18.542 L217.483,20.258 Z M227.416,24.603 L226.624,24.603 C226.382,24.603 226.206,24.603 226.052,24.394 C225.931,24.229 225.931,24.108 225.931,23.899 L225.931,23.283 C225.931,23.074 225.931,22.953 226.052,22.788 C226.206,22.579 226.382,22.579 226.624,22.579 L227.416,22.579 C227.658,22.579 227.834,22.579 227.988,22.788 C228.109,22.953 228.109,23.074 228.109,23.283 L228.109,23.899 C228.109,24.108 228.109,24.229 227.988,24.394 C227.834,24.603 227.658,24.603 227.416,24.603 Z M227.416,20.863 L226.624,20.863 C226.382,20.863 226.206,20.863 226.052,20.654 C225.931,20.489 225.931,20.368 225.931,20.159 L225.931,19.543 C225.931,19.334 225.931,19.213 226.052,19.048 C226.206,18.839 226.382,18.839 226.624,18.839 L227.416,18.839 C227.658,18.839 227.834,18.839 227.988,19.048 C228.109,19.213 228.109,19.334 228.109,19.543 L228.109,20.159 C228.109,20.368 228.109,20.489 227.988,20.654 C227.834,20.863 227.658,20.863 227.416,20.863 Z" id="000123456789:" fill="#000000"></path>
        <text id="Account-Number" font-family="Roboto-Regular, Roboto" font-size="10" font-weight="normal" fill="#666666">
            <tspan x="140.416992" y="44">Account Number</tspan>
        </text>
    </g>
</svg>