<?xml version="1.0" encoding="UTF-8"?>
<svg width="110px" height="55px" viewBox="0 0 110 55" version="1.1" xmlns="http://www.w3.org/2000/svg" xmlns:xlink="http://www.w3.org/1999/xlink">
    <!-- Generator: Sketch 50.2 (55047) - http://www.bohemiancoding.com/sketch -->
    <title>CC Tooltip Sml</title>
    <desc>Created with Sketch.</desc>
    <defs></defs>
    <g id="CC-Tooltip-Sml" stroke="none" stroke-width="1" fill="none" fill-rule="evenodd">
        <rect id="Rectangle-6" fill="#FFFFFF" x="15" y="23" width="8" height="6" rx="2"></rect>
        <rect id="Rectangle-6-Copy" fill="#FFFFFF" x="15" y="31" width="5" height="3" rx="1.5"></rect>
        <rect id="Rectangle-6-Copy-5" fill="#FFFFFF" x="15" y="36" width="9" height="2" rx="1"></rect>
        <rect id="Rectangle-6-Copy-2" fill="#FFFFFF" x="22" y="31" width="5" height="3" rx="1.5"></rect>
        <rect id="Rectangle-6-Copy-3" fill="#FFFFFF" x="30" y="31" width="5" height="3" rx="1.5"></rect>
        <rect id="Rectangle-6-Copy-4" fill="#FFFFFF" x="37" y="31" width="5" height="3" rx="1.5"></rect>
        <rect id="Rectangle-5" stroke="#FFFFFF" stroke-width="2" x="12" y="18" width="33" height="23" rx="3"></rect>
        <rect id="Rectangle-6-Copy-11" fill="#FFFFFF" x="66" y="23" width="32" height="5"></rect>
        <rect id="Rectangle-6-Copy-6" fill="#FFFFFF" x="84" y="30" width="3" height="3"></rect>
        <rect id="Rectangle-6-Copy-7" fill="#FFFFFF" x="88" y="30" width="3" height="3"></rect>
        <rect id="Rectangle-6-Copy-8" fill="#FFFFFF" x="92" y="30" width="3" height="3"></rect>
        <rect id="Rectangle-5-Copy" stroke="#FFFFFF" stroke-width="2" x="65" y="18" width="33" height="23" rx="3"></rect>
        <circle id="Oval-2" stroke="#48A9FD" stroke-width="3" cx="40" cy="19" r="9"></circle>
        <circle id="Oval-2-Copy" stroke="#48A9FD" stroke-width="3" cx="93.5" cy="19.5" r="8.5"></circle>
    </g>
</svg>