<?xml version="1.0" encoding="UTF-8"?>
<svg width="128px" height="128px" viewBox="0 0 128 128" version="1.1" xmlns="http://www.w3.org/2000/svg" xmlns:xlink="http://www.w3.org/1999/xlink">
    <!-- Generator: Sketch 52.2 (67145) - http://www.bohemiancoding.com/sketch -->
    <title>edit</title>
    <desc>Created with Sketch.</desc>
    <g id="Page-1" stroke="none" stroke-width="1" fill="none" fill-rule="evenodd">
        <g id="edit">
            <circle id="Oval" fill="#00A9E0" cx="64" cy="64" r="64"></circle>
            <path d="M92,45.5627806 L92,47.6179635 C91.5515567,49.6250209 90.733421,51.4537946 89.3749659,53.0178775 C88.9899609,53.460852 88.6038621,53.9049203 88.1871379,54.3172694 C77.552833,64.8473021 66.9116009,75.3711368 56.2634417,85.8887735 C55.9330794,86.2107746 55.5346266,86.4544812 55.097489,86.6019078 C49.6651267,88.362139 44.2272956,90.1063284 38.7839957,91.8344758 C37.4266343,92.2719815 36.2902133,91.7338495 36.0353662,90.4825833 C35.9478651,90.0560152 36.0353662,89.556165 36.1600554,89.1263156 C37.7153881,83.8762474 39.3177526,78.6524295 40.8435537,73.3990799 C41.1405802,72.346417 41.711196,71.3912394 42.4973252,70.6307627 C52.286515,60.8780317 62.0574753,51.1045193 71.8102063,41.3102253 C74.2350816,38.8645685 76.7015199,36.6562585 80.2595349,36 L82.4612823,36 C82.499564,36.1093764 82.5345645,36.0864074 82.5761275,36.09297 C86.0127347,36.6562585 88.3840155,38.7650359 90.3331033,41.4742899 C91.2157711,42.7003996 91.6554643,44.1146367 92,45.5627806 Z" id="Path" fill="#FFFFFF"></path>
        </g>
    </g>
</svg>