<?xml version="1.0" encoding="UTF-8"?>
<svg width="504px" height="93px" viewBox="0 0 504 93" version="1.1" xmlns="http://www.w3.org/2000/svg" xmlns:xlink="http://www.w3.org/1999/xlink">
    <!-- Generator: Sketch 53.1 (72631) - https://sketchapp.com -->
    <title>partner-logo-isite</title>
    <desc>Created with Sketch.</desc>
    <g id="Page-1" stroke="none" stroke-width="1" fill="none" fill-rule="evenodd">
        <g id="partner-logo-isite" fill-rule="nonzero">
            <rect id="Rectangle" fill="#1290CA" x="297.9" y="0.4" width="3.1" height="92.3"></rect>
            <g id="Group" transform="translate(0.000000, 4.000000)" fill="#292865">
                <polygon id="Path" points="10.3 82.3 0.3 82.3 0.3 1.8 10.3 1.8"></polygon>
                <path d="M61.5,83.7 C48.5,83.7 38.2,79.4 30.6,70.9 L36.6,63.2 C43.3,70.9 51.7,74.8 61.8,74.8 C68.3,74.8 73.1,73.4 76.2,70.6 C79.3,67.8 80.8,64.5 80.8,60.8 C80.8,57.6 79.6,54.9 77.2,52.8 C74.8,50.7 71.9,49.1 68.4,48.2 C64.9,47.2 61.1,46.1 56.9,44.9 C52.8,43.7 48.9,42.3 45.4,41 C41.9,39.6 39,37.4 36.6,34.4 C34.2,31.3 33,27.6 33,23.1 C33,16.5 35.6,11.1 40.8,6.9 C46,2.7 52.7,0.6 60.7,0.6 C72.5,0.6 82,4.4 89.2,11.9 L83.2,19.3 C77.5,12.9 69.7,9.7 59.9,9.7 C55.1,9.7 51.1,10.9 48,13.3 C44.9,15.7 43.4,18.7 43.4,22.5 C43.4,25.3 44.6,27.6 47,29.5 C49.4,31.4 52.3,32.7 55.8,33.6 C59.3,34.5 63.1,35.6 67.3,36.9 C71.4,38.2 75.3,39.6 78.8,41.1 C82.3,42.6 85.2,45 87.6,48.3 C90,51.6 91.2,55.6 91.2,60.2 C91.2,66.7 88.8,72.3 83.9,76.9 C79,81.4 71.5,83.7 61.5,83.7 Z" id="Path"></path>
                <polygon id="Path" points="122.4 82.3 112.4 82.3 112.4 1.8 122.4 1.8"></polygon>
                <polygon id="Path" points="177.4 82.3 167.4 82.3 167.4 10.8 142 10.8 142 1.9 203 1.9 203 10.8 177.4 10.8"></polygon>
                <polygon id="Path" points="275.2 82.3 222.5 82.3 222.5 1.8 275.2 1.8 275.2 10.7 232.5 10.7 232.5 36.6 274.3 36.6 274.3 45.5 232.5 45.5 232.5 73.2 275.2 73.2"></polygon>
            </g>
            <g id="Group" transform="translate(363.000000, 5.000000)" fill="#1290CA">
                <polygon id="Path" points="15.3 26.6 0.8 26.6 0.8 0.7 2.9 0.7 2.9 24.6 15.3 24.6"></polygon>
                <rect id="Rectangle" x="23" y="0.7" width="2.1" height="26"></rect>
                <polygon id="Path" points="54.9 0.7 54.9 23.4 36.6 0.7 36.6 0.7 36.6 0.7 34.5 0.7 34.5 26.7 36.6 26.7 36.6 4 54.9 26.7 57 26.7 57 0.7"></polygon>
                <path d="M77.8,25.2 C75.3,25.2 73,24.4 71.1,23.1 C70.5,23.5 69.9,23.9 69.2,24.3 C71.5,26.2 74.5,27.3 77.7,27.3 C79.6,27.3 81.3,26.9 83,26.2 C82.7,25.6 82.4,25 82.2,24.3 C80.8,24.9 79.3,25.2 77.8,25.2 Z" id="Path"></path>
                <path d="M85.9,30.8 C84.8,30.8 83.8,30.2 82.6,29.6 C81.5,29 80.4,28.3 78.9,28 C78.9,28 82.1,26.7 83.2,26.2 C84.3,25.7 85.7,24.9 86.7,24 C87.9,22.9 88.9,21.7 89.7,20.2 C90.7,18.3 91.3,16.1 91.3,13.7 C91.3,6.2 85.2,0.1 77.7,0.1 C70.2,0.1 64.1,6.2 64.1,13.7 C64.1,18 66.1,21.8 69.2,24.3 C69.8,23.9 70.4,23.5 71.1,23.1 C68.1,21 66.2,17.6 66.2,13.7 C66.2,7.3 71.4,2.1 77.8,2.1 C84.2,2.1 89.4,7.3 89.4,13.7 C89.4,18.5 86.4,22.6 82.3,24.4 L82.3,24.4 L73.1,28.3 L72.9,28.4 C72.9,28.4 72.9,28.4 72.9,28.4 L72.9,28.4 L69.5,29.9 L70.3,31.8 L73.7,30.3 C74.9,29.8 75.9,29.8 76.7,29.8 L76.8,29.8 C78.8,29.8 80.2,30.6 81.7,31.4 C83,32.1 84.4,32.9 86,32.9 C89.4,32.9 91.2,30.8 91.2,30.8 L89.6,29.5 C89.5,29.4 88.3,30.8 85.9,30.8 Z" id="Path"></path>
            </g>
            <g id="Group" transform="translate(315.000000, 3.000000)" fill="#1290CA">
                <path d="M24.4,26.9 L21.8,26.9 L19.2,20.5 L5.4,20.5 L2.8,26.9 L0.2,26.9 L10.8,0.9 L13.6,0.9 L24.4,26.9 Z M18.5,18.5 L12.4,3.3 L6.2,18.5 L18.5,18.5 Z" id="Shape"></path>
                <path d="M11.1,82.4 C7.1,82.4 3.9,81 1.6,78.3 L3,76.6 C5.2,79.1 7.9,80.4 11.2,80.4 C13.6,80.4 15.3,79.9 16.4,78.8 C17.5,77.7 18,76.5 18,75.2 C18,74.2 17.7,73.3 17.1,72.6 C16.5,71.9 15.8,71.3 14.9,70.9 C14,70.5 13,70.2 11.9,69.8 C10.8,69.5 9.7,69.2 8.6,68.8 C7.5,68.4 6.5,68 5.6,67.6 C4.7,67.1 3.9,66.4 3.4,65.6 C2.9,64.8 2.5,63.7 2.5,62.5 C2.5,60.4 3.3,58.7 5,57.5 C6.6,56.2 8.7,55.6 11.1,55.6 C14.9,55.6 17.8,56.8 19.9,59.3 L18.4,60.9 C16.6,58.7 14.1,57.6 11,57.6 C9.3,57.6 7.8,58 6.7,58.9 C5.5,59.8 5,60.9 5,62.4 C5,63.3 5.3,64 5.9,64.7 C6.5,65.3 7.2,65.8 8.1,66.2 C9,66.6 10,66.9 11.1,67.2 C12.2,67.5 13.3,67.8 14.4,68.2 C15.5,68.6 16.5,69 17.4,69.5 C18.3,70 19.1,70.8 19.6,71.7 C20.2,72.6 20.5,73.8 20.5,75.1 C20.5,77.1 19.8,78.8 18.3,80.3 C16.6,81.7 14.3,82.4 11.1,82.4 Z" id="Path"></path>
                <path d="M38.3,82.4 C34.5,82.4 31.5,81.1 29.2,78.6 C26.9,76.1 25.7,72.8 25.7,69 C25.7,65.1 26.9,61.9 29.2,59.4 C31.5,56.9 34.6,55.6 38.3,55.6 C42,55.6 45.1,56.9 47.4,59.4 C49.7,61.9 50.9,65.2 50.9,69 C50.9,72.9 49.7,76.1 47.4,78.6 C45.1,81.1 42.1,82.4 38.3,82.4 Z M38.3,80.4 C41.4,80.4 43.9,79.3 45.7,77.2 C47.6,75.1 48.5,72.3 48.5,69 C48.5,65.7 47.6,62.9 45.7,60.8 C43.8,58.7 41.3,57.6 38.2,57.6 C35.1,57.6 32.6,58.7 30.7,60.8 C28.8,62.9 27.9,65.7 27.9,69 C27.9,72.3 28.8,75.1 30.7,77.2 C32.7,79.3 35.2,80.4 38.3,80.4 Z" id="Shape"></path>
                <polygon id="Path" points="71.7 81.9 56.8 81.9 56.8 55.9 59.1 55.9 59.1 79.9 71.7 79.9 71.7 81.9"></polygon>
                <path d="M86.3,82.4 C83,82.4 80.5,81.5 78.8,79.6 C77.1,77.7 76.2,75.2 76.2,71.9 L76.2,55.9 L78.5,55.9 L78.5,71.9 C78.5,74.6 79.2,76.6 80.5,78.1 C81.9,79.6 83.8,80.3 86.3,80.3 C88.8,80.3 90.8,79.6 92.1,78.1 C93.5,76.6 94.1,74.5 94.1,71.9 L94.1,55.9 L96.4,55.9 L96.4,71.9 C96.4,75.2 95.5,77.7 93.8,79.6 C92.1,81.5 89.6,82.4 86.3,82.4 Z" id="Path"></path>
                <polygon id="Path" points="112.8 81.9 110.5 81.9 110.5 57.9 102 57.9 102 55.9 121.3 55.9 121.3 57.9 112.8 57.9"></polygon>
                <polygon id="Path" points="129.1 81.9 126.9 81.9 126.9 55.9 129.1 55.9"></polygon>
                <path d="M148.2,82.4 C144.4,82.4 141.4,81.1 139.1,78.6 C136.8,76.1 135.6,72.8 135.6,69 C135.6,65.1 136.8,61.9 139.1,59.4 C141.4,56.9 144.5,55.6 148.2,55.6 C151.9,55.6 155,56.9 157.3,59.4 C159.6,61.9 160.8,65.2 160.8,69 C160.8,72.9 159.6,76.1 157.3,78.6 C155,81.1 151.9,82.4 148.2,82.4 Z M148.2,80.4 C151.3,80.4 153.8,79.3 155.6,77.2 C157.5,75.1 158.4,72.3 158.4,69 C158.4,65.7 157.5,62.9 155.6,60.8 C153.7,58.7 151.2,57.6 148.1,57.6 C145,57.6 142.5,58.7 140.6,60.8 C138.7,62.9 137.8,65.7 137.8,69 C137.8,72.3 138.7,75.1 140.6,77.2 C142.6,79.3 145.1,80.4 148.2,80.4 Z" id="Shape"></path>
                <polygon id="Path" points="188.1 81.9 185.9 81.9 169.5 59.6 169.5 81.9 167.3 81.9 167.3 55.9 169.6 55.9 185.9 77.9 185.9 55.9 188.1 55.9 188.1 81.9"></polygon>
            </g>
        </g>
    </g>
</svg>